<?xml version="1.0" encoding="utf-8"?>
<!-- Generator: Adobe Illustrator 26.2.1, SVG Export Plug-In . SVG Version: 6.00 Build 0)  -->
<svg version="1.1" id="Layer_1" xmlns="http://www.w3.org/2000/svg" xmlns:xlink="http://www.w3.org/1999/xlink" x="0px" y="0px"
	 viewBox="0 0 3325.15 1808.27" style="enable-background:new 0 0 3325.15 1808.27;" xml:space="preserve">
<style type="text/css">
	.st0{fill:#E81818;}
	.st1{opacity:0.2;}
	.st2{fill:#371A45;}
	.st3{opacity:0.35;}
	.st4{opacity:0.5;}
	.st5{fill:#FFFFFF;}
	.st6{opacity:0.25;}
	.st7{opacity:0.7;}
	.st8{fill:#22A7F0;}
	.st9{opacity:0.3;}
	.st10{fill:none;stroke:#FFFFFF;stroke-width:32.1483;stroke-linecap:round;stroke-miterlimit:10;}
	.st11{fill:#111A28;}
	.st12{fill:#220F2D;}
	.st13{fill:none;stroke:#371A45;stroke-width:36.3839;stroke-linecap:round;stroke-miterlimit:10;}
	.st14{fill:#AFAFB2;}
	.st15{fill:#1698F9;}
	.st16{fill:#FF66AC;}
	.st17{fill:#DB2C2C;}
	.st18{fill:#FF0068;}
	.st19{fill:#F9744B;}
	.st20{fill:#000072;}
	.st21{fill:#FFA1A8;}
	.st22{fill:#FA508E;}
	.st23{fill:none;stroke:#000072;stroke-width:43.7543;stroke-linecap:round;stroke-miterlimit:10;}
	.st24{fill:#0F2675;}
	.st25{fill:#F27E80;}
	.st26{fill:none;stroke:#293856;stroke-width:33.8539;stroke-linecap:round;stroke-miterlimit:10;}
	.st27{fill:#32B1D1;}
	.st28{fill:#E7A900;}
	.st29{fill:#FFFD01;}
	.st30{fill:#FFDA00;}
	.st31{opacity:0.4;}
	.st32{opacity:0.7;fill:url(#SVGID_1_);}
	.st33{opacity:0.7;fill:url(#SVGID_00000100342118967978139380000001261181724734826893_);}
	.st34{fill:#FFDA22;}
	.st35{opacity:0.8;}
	.st36{fill:#293856;}
	.st37{fill:#21102B;}
	.st38{fill:#27A8FF;}
	.st39{fill:#6B184E;}
	.st40{fill:none;stroke:#FFFFFF;stroke-width:34.661;stroke-linecap:round;stroke-miterlimit:10;}
	.st41{fill:none;stroke:#293856;stroke-width:42.0064;stroke-linecap:round;stroke-linejoin:round;stroke-miterlimit:10;}
	.st42{fill:#FFB200;}
	.st43{fill:#D66B09;}
	.st44{fill:#FFC536;}
	.st45{fill:#FFEC90;}
	.st46{opacity:0.41;}
	.st47{fill:none;}
	.st48{fill:#FFA92C;}
	.st49{fill:#FFD243;}
	.st50{fill:none;stroke:#371A45;stroke-width:26.0927;stroke-linecap:round;stroke-miterlimit:10;}
	.st51{fill:none;stroke:#371A45;stroke-width:34.7903;stroke-linecap:round;stroke-miterlimit:10;}
	.st52{fill:#D25658;}
	.st53{fill:#27BDFF;}
	.st54{fill:#181558;}
</style>
<g>
	<g>
		<g>
			<g>
				<path class="st0" d="M2662.71,1110.78c0,0,175.89-231.33,629.19,133.41c21.3,17.14,21.58,49.45,0.46,66.81
					c-113.41,93.22-444.56,334.2-627.09,137.7L2662.71,1110.78z"/>
			</g>
			<g>
				<path class="st28" d="M2662.09,1159.63c0,0,124.82-164.16,446.63,95.76c14.09,11.38,14.26,32.83,0.3,44.37
					c-78.48,64.82-315.12,238.75-445.12,98.8L2662.09,1159.63z"/>
			</g>
			<g>
				<path class="st29" d="M2649.7,1198.71c0,0,84.22-110.77,301.37,64.61c9.51,7.68,9.62,22.15,0.2,29.94
					c-52.96,43.74-212.63,161.1-300.35,66.66L2649.7,1198.71z"/>
			</g>
			<g>
				<path class="st2" d="M2841.51,1541.14c-75.6,0-138.76-26.96-188.77-80.8c-2.91-3.13-4.54-7.24-4.57-11.51l-2.56-337.92
					c-0.03-3.78,1.2-7.47,3.49-10.48c1.97-2.6,49.52-63.68,155.99-76.68c138.34-16.88,305.73,52.78,497.54,207.12
					c14.22,11.44,22.43,28.45,22.52,46.67c0.09,18.14-7.9,35.16-21.92,46.68c-56.63,46.55-169.9,131.86-292.2,180.19
					C2949.02,1528.9,2892.44,1541.14,2841.51,1541.14z M2682.33,1441.79c73.04,74.47,179.35,84.83,316.12,30.79
					c117.96-46.62,227.97-129.53,283.05-174.8c6.04-4.96,9.47-12.28,9.43-20.08c-0.04-7.88-3.6-15.23-9.76-20.19
					c-228.71-184.03-382.12-210.33-470.52-199.98c-78.1,9.14-119.01,46.81-130.79,59.53L2682.33,1441.79z"/>
			</g>
		</g>
		<g>
			<path class="st0" d="M2683.36,803.1c-41.73,25.18-238.75,141.9-235.29,266.33l-208.17-93.33c0.65-6.07,1.66-12.42,3.07-18.91
				l-0.01-0.03c20.36-93.29,124.25-224.34,431.93-164.45c2.29,0.43,4.58,0.9,6.91,1.35C2686.18,794.93,2687.2,800.78,2683.36,803.1z
				"/>
		</g>
		<g class="st4">
			<g>
				<path class="st5" d="M2683.37,803.11c-5.51,3.34-13.71,8.24-23.85,14.6c-281.42-45.52-380.3,76.53-401.62,166.49l-18.02-8.08
					c0.64-6.07,1.69-12.43,3.1-18.94h-0.04c20.39-93.3,124.26-224.35,431.94-164.48c2.29,0.44,4.58,0.88,6.92,1.37
					C2686.19,794.95,2687.19,800.78,2683.37,803.11z"/>
			</g>
		</g>
		<g class="st6">
			<path class="st2" d="M2678.36,793.1c-41.73,25.18-238.75,141.9-235.29,266.33l-208.17-93.33c0.65-6.07,1.66-12.42,3.07-18.91
				l-2.65,8.75c15.17-7.01,39.54-14.56,62.82-12.16c85.55,8.85,130.45,7.17,172.13-37.08c52.25-55.47,150.45-114.18,199.61-123.99
				c2.29,0.43,4.58,0.9,6.91,1.35C2681.18,784.93,2682.2,790.78,2678.36,793.1z"/>
		</g>
		<g>
			<path class="st2" d="M2448.06,1085.52c-8.68,0-15.83-6.91-16.07-15.64c-1.6-57.86,35.73-150.04,218.34-265.33
				c-137.13-23.31-246.04-8.65-316.19,42.81c-63.04,46.25-75.72,106.61-78.24,130.43c-0.94,8.83-8.84,15.19-17.69,14.3
				c-8.84-0.94-15.24-8.86-14.3-17.7c2.98-28.06,17.83-99.14,91.21-152.97c83.58-61.31,208.01-75.83,369.86-43.15
				c8.56,1.73,15.05,8.41,16.54,17.02c1.49,8.61-2.37,17.08-9.85,21.58l-1.97,1.19c-198.98,119.85-226.73,208.65-225.56,250.92
				c0.25,8.88-6.75,16.28-15.63,16.52C2448.37,1085.52,2448.21,1085.52,2448.06,1085.52z"/>
		</g>
		<g>
			<path class="st8" d="M2432.89,1557.57l109.29-19.78c49.44-8.95,88.94-40.54,102.84-82.24v0
				c41.39-124.19,42.33-256.03,2.73-381.23v0c-13.3-42.04-52.34-74.62-101.65-84.8L2437.11,967L2432.89,1557.57z"/>
		</g>
		<g class="st4">
			<g>
				<path class="st5" d="M2647.74,1074.32L2647.74,1074.32c-13.3-42.04-52.34-74.62-101.65-84.8L2437.11,967l-0.27,37.85
					l95.18,19.66c49.31,10.19,88.35,42.76,101.65,84.8l0,0c38.14,120.55,38.56,247.24,1.6,367.34c3.98-6.68,7.28-13.73,9.74-21.11
					l0,0C2686.41,1331.36,2687.35,1199.52,2647.74,1074.32z"/>
			</g>
		</g>
		<g>
			<g class="st9">
				<path class="st2" d="M2532.34,1497.78c49.42-8.93,88.95-40.54,102.83-82.24c16.39-49.21,26.38-99.62,30.08-150.36
					c0.06-0.04,0.11-0.09,0.17-0.13c-29.47,20.63-71.21,35.32-119.14,40.84l-111.71,12.87l-1.42,196.98L2532.34,1497.78z"/>
			</g>
		</g>
		<g>
			<path class="st52" d="M2234,1564.42c8.05,93.77,102.02,256.99,438.09,196.13c4.41-0.8,5.55-6.63,1.76-9.02
				c-41.23-26-235.8-152.25-229.86-276.58L2234,1564.42z"/>
		</g>
		<g>
			<path class="st0" d="M2672.09,1760.56c4.4-0.83,5.54-6.65,1.75-9.04c-21.1-13.33-82.45-52.95-136.48-105.15
				c-51.07-49.31-95.57-109.9-93.39-170.09c0-0.43,0.04-0.9,0.05-1.33l-1.27,0.54l-208.73,88.92c2.26,26.32,11.28,58.12,30.57,88.89
				C2313.87,1732.17,2430.32,1804.32,2672.09,1760.56z"/>
		</g>
		<g class="st3">
			<path class="st2" d="M2537.36,1646.37c-51.07-49.31-95.57-109.9-93.39-170.09c-0.41-0.25-0.82-0.54-1.23-0.8l-208.73,88.92
				c2.26,26.32,11.28,58.12,30.57,88.89C2331.53,1676.78,2421.01,1681.08,2537.36,1646.37z"/>
		</g>
		<g>
			<path class="st2" d="M2535.06,1790.04c-93.87,0-169.71-21.77-226.44-65.17c-74.37-56.89-88.17-130.2-90.65-159.08
				c-0.76-8.85,5.8-16.65,14.65-17.4c8.89-0.75,16.64,5.8,17.4,14.65c1.65,19.21,12.16,85.81,78.14,136.27
				c69.38,53.07,177.16,70.22,312.91,50.05c-80.88-54.32-218.48-163.61-213.14-275.19c0.42-8.87,7.91-15.59,16.84-15.3
				c8.87,0.42,15.72,7.96,15.3,16.84c-5.25,109.85,168.87,228.46,222.37,262.2c7.38,4.65,11.07,13.2,9.41,21.77
				c-1.67,8.58-8.29,15.13-16.88,16.68C2624.65,1785.49,2577.96,1790.04,2535.06,1790.04z"/>
		</g>
		<g>
			<path class="st5" d="M2474.28,1077.89c40.11,159.57,26.32,326.22-41.41,479.68c0,0-397.81,283.62-1183.3,227.31
				C327.43,1718.78,0,1231.78,0,1231.78s284.48-407.2,1052.76-504.18c64.69-8.2,132.85-14.15,204.51-17.48
				c240.82-11.2,444.8,8.54,611.89,41.35c378.51,74.31,567.97,215.51,567.97,215.51
				C2452.46,1003.39,2464.86,1040.42,2474.28,1077.89z"/>
		</g>
		<g class="st9">
			<path class="st2" d="M1249.54,1784.87c785.5,56.33,1183.37-227.29,1183.37-227.29c32.39-73.44,52.42-149.93,60.13-227.24
				c12.17-122.02-6.44-246.07-55.91-363.36c0,0-100.93-75.21-302.62-144.77c66.46,34.31,191.65,98.89,251.17,168.06
				c69.38,80.62,59.74,189.74-95.52,254.4c-0.72,0.3-51.36,23.18-50.9,23.8c108.94,147.79-41.57,267.87-211.35,331.36
				c-307.43,114.96-665.15,133.61-966.33,52.9c-92.88-24.89-290.03-93.57-340.61-215.84c-107.09-258.9-28.61-521.48-84.73-523.09
				c-86.6-2.49-127.93,687.42-191.98,664.77C637.3,1674.78,900.92,1759.86,1249.54,1784.87z"/>
		</g>
		<g>
			<path class="st0" d="M659.53,1668.51c-68.23-283.26-66.14-575.3,6.13-856.86c-344.74,110.12-538.02,279.31-619.32,365.55
				c-29.06,30.83-29.5,78.68-1.05,110.08C125.18,1375.43,316.05,1549.66,659.53,1668.51z"/>
		</g>
		<g class="st4">
			<g>
				<path class="st5" d="M76.34,1212.21c77.94-82.68,258.91-241.58,577.51-351.59c3.71-16.35,7.63-32.67,11.81-48.96
					c-344.74,110.12-538.02,279.31-619.32,365.55c-29.06,30.83-29.5,78.68-1.05,110.08c6.03,6.65,12.77,13.85,20.09,21.43
					C47.53,1278.24,51.21,1238.87,76.34,1212.21z"/>
			</g>
		</g>
		<g class="st9">
			<path class="st2" d="M659.55,1668.53c-68.27-283.28-66.19-575.31,6.14-856.88c-8.76,2.78-107.72,282.65-86.9,634.64
				c4.37,73.96-161.2,18.45-235.75-19.37c-140.42-71.24-252.72-149.65-327.16-215.4c-0.11,0.13-0.21,0.26-0.32,0.39
				c-9.6,11.62-9.74,28.37-0.35,40.15C67.78,1318.02,260.85,1530.56,659.55,1668.53z"/>
		</g>
		<g>
			<path class="st2" d="M682.05,1693.33l-27.79-9.61c-347.2-120.15-540.08-295.44-624.14-389.23
				c-32.68-36.46-32.29-88.81,0.94-124.49c85.41-91.71,280.79-262.21,629.71-373.66l27.71-8.85l-7.23,28.17
				c-72.1,280.85-74.14,566.53-6.08,849.09L682.05,1693.33z M643.04,836C318.34,945.17,135.6,1104.93,54.6,1191.92
				c-22.31,23.96-22.52,56.55-0.52,81.09c79.75,88.98,260.13,253.23,583.12,370.53C576.92,1374.69,578.89,1103.33,643.04,836z"/>
		</g>
		<g>
			<path class="st2" d="M1450.75,1808.27c-64.23,0-131.64-2.28-202.29-7.34c-214.03-15.34-413.94-54.76-594.19-117.16
				c-5.48-1.9-9.44-6.56-10.52-12.1c-69.15-287.51-67.02-578.22,6.34-864.01c1.38-5.36,5.41-9.64,10.68-11.32
				c181.11-57.88,381.56-92.29,595.78-102.27c408.64-19.05,709.95,52.33,890.76,115.57c196.77,68.82,295.34,141.4,299.45,144.46
				c2.29,1.71,4.09,4,5.21,6.64c41.08,97.33,61.53,199.07,60.8,302.39c-0.74,103.32-22.65,204.56-65.12,300.91
				c-1.17,2.65-3.03,4.93-5.38,6.61c-4.15,2.96-103.77,73.1-301.51,137C1990.49,1756.2,1757.7,1808.27,1450.75,1808.27z
				 M673.14,1656.24c175.42,59.82,369.69,97.7,577.62,112.6c403.15,28.91,701.12-33.97,880.09-91.81
				c172.75-55.83,269.95-117.35,289.19-130.17c39.49-91.05,59.86-186.56,60.55-283.97c0.7-97.44-18.31-193.46-56.51-285.46
				c-19.02-13.25-116.31-77.78-289.02-138c-177.88-62.01-474.45-132.02-877.01-113.23c-208.06,9.69-402.8,42.69-579,98.09
				C609.82,1099.55,607.83,1379.34,673.14,1656.24z M2432.91,1557.55h0.05H2432.91z"/>
		</g>
		<g>
			<path class="st2" d="M2432.87,1573.66c-7.63,0-14.4-5.45-15.81-13.22c-1.58-8.75,4.22-17.11,12.96-18.7l109.29-19.78
				c43.73-7.92,78.38-35.31,90.44-71.5c40.31-120.95,41.23-249.34,2.65-371.29c-11.56-36.56-45.88-64.88-89.56-73.91l-108.98-22.51
				c-8.7-1.8-14.3-10.31-12.5-19c1.79-8.7,10.3-14.33,19.01-12.5l108.98,22.51c55.07,11.38,98.65,48.05,113.73,95.7
				c40.64,128.47,39.67,263.73-2.8,391.17c-15.78,47.34-59.94,82.97-115.24,92.98l-109.29,19.78
				C2434.78,1573.58,2433.82,1573.66,2432.87,1573.66z"/>
		</g>
		<g>
			<path class="st0" d="M2443.53,1365.55c117.14,1.15,233.43-90.43,233.43-90.43s-0.44-0.36-1.25-0.98
				c-12.66-10.08-120.28-92.99-230.29-94.14c-105.57-1.08-191.16,74.41-206.16,88.47c-1.54,1.45-2.33,2.24-2.33,2.24
				S2327.18,1364.44,2443.53,1365.55z"/>
		</g>
		<g class="st4">
			<g>
				<path class="st5" d="M2676.95,1275.13c0,0-4.94,3.9-13.8,10.04c-51.08-31.87-133.62-73.55-217.34-74.44
					c-82.79-0.85-154.97,38.86-198.54,69.74c-6.72-6.02-10.33-9.77-10.33-9.77s0.78-0.79,2.31-2.23
					c15.01-14.07,100.61-89.57,206.16-88.47c110,1.17,217.64,84.08,230.3,94.14C2676.51,1274.76,2676.95,1275.13,2676.95,1275.13z"
					/>
			</g>
		</g>
		<g class="st9">
			<path class="st39" d="M2443.53,1365.55c117.14,1.15,233.43-90.43,233.43-90.43s-0.44-0.36-1.25-0.98l-436.45-5.68
				c-1.54,1.45-2.33,2.24-2.33,2.24S2327.18,1364.44,2443.53,1365.55z"/>
		</g>
		<g>
			<path class="st2" d="M2445.74,1381.67c-0.79,0-1.56,0-2.35-0.01c-121.73-1.18-214.15-95.76-218.03-99.79
				c-6.08-6.32-5.98-16.35,0.23-22.54c3.93-3.92,96.99-95.4,217.52-95.4c0.82,0,1.64,0,2.46,0.01
				c121.4,1.25,236.75,94.78,241.6,98.75c3.77,3.09,5.93,7.72,5.88,12.6s-2.3,9.46-6.13,12.48
				C2682.02,1291.62,2566.29,1381.67,2445.74,1381.67z M2260.85,1270.95c27.6,24.02,98.63,77.71,182.85,78.54
				c0.67,0,1.35,0.01,2.02,0.01c83.79,0,168.51-50.62,204-74.64c-35.28-24.93-120.03-77.88-204.47-78.75
				C2361.01,1195.48,2288.94,1247.48,2260.85,1270.95z"/>
		</g>
		<g>
			<path class="st53" d="M719.68,887.8c-0.05-2.58-0.01-5.19,0.06-7.81C734.36,350.4,1081.67,4.88,1498,16.37
				C1914.37,27.86,2242.1,392,2227.48,921.6c-0.07,2.61-0.22,5.23-0.41,7.8L719.68,887.8z"/>
		</g>
		<g class="st4">
			<path class="st5" d="M1498,16.37c-74.25-2.05-146.29,7.32-214.65,27c-101.74,29.29-195.29,81.54-275.74,153.55
				C838.97,347.82,727.87,585.4,719.74,879.99c-0.07,2.61-0.1,5.23-0.06,7.81l31.08,0.86c14.11-287.95,127.59-519.29,296.52-665.27
				c38.51,7.62,94.9-9.01,146.56-46.78c34.42-25.17,60.52-55.19,75.43-83.96c81.19-29.4,168.33-43.77,258.74-41.27
				c196.66,5.43,373.52,89.56,503.9,232.6C1899.33,119.71,1710.19,22.22,1498,16.37z"/>
		</g>
		<g>
			<g class="st3">
				<path class="st2" d="M1872.52,181.92c-0.01-0.03-0.03-0.06-0.04-0.08c14,30.31,26.34,59.24,37.11,86.72
					c74.63,190.4-62.8,397.19-267.28,400.52c-316.81,5.15-767.73,43.44-922.56,210.93c-1.77,1.92-0.12,5.23-0.08,7.8l1473.01,40.63
					C2198.27,599.07,2070.93,334.96,1872.52,181.92z"/>
			</g>
		</g>
		<g>
			<path class="st2" d="M2227.09,945.48c-0.39,0-0.79-0.01-1.19-0.04c-8.86-0.65-15.52-8.35-14.87-17.22
				c0.17-2.33,0.31-4.7,0.37-7.06C2225.29,418,1925.07,44.24,1497.56,32.45c-200.62-5.52-388.06,73.94-527.56,223.79
				c-144.18,154.88-227.35,376.56-234.18,624.2c-0.06,2.36-0.1,4.73-0.05,7.07c0.16,8.88-6.91,16.21-15.79,16.37c-0.1,0-0.2,0-0.3,0
				c-8.75,0-15.92-7.01-16.08-15.8c-0.05-2.82-0.01-5.68,0.06-8.53c7.05-255.48,93.27-484.62,242.79-645.24
				C1092.33,77.6,1288.33-5.55,1498.44,0.29c210.1,5.8,401.26,99.59,538.28,264.11c140.43,168.62,213.89,402.17,206.84,657.64
				c-0.08,2.85-0.24,5.71-0.45,8.53C2242.5,939.03,2235.44,945.48,2227.09,945.48z"/>
		</g>
		<g>
			<path class="st2" d="M2227.07,929.39c-0.33,5.03-1.02,10.05-1.86,14.9c-28.24,86.76-357.02,146.91-756.58,135.89
				c-399.52-11.03-724.48-89.22-747.93-177.41c-0.53-4.9-0.94-9.94-1.03-14.98c11.64-90.58,347.62-154.43,758.22-143.1
				C1888.54,756.02,2220.45,838.31,2227.07,929.39z"/>
		</g>
		<g>
			<path class="st54" d="M1560.33,1097.52c-30.73,0-61.5-0.42-92.12-1.27c-356.8-9.84-733.47-78.04-763.03-189.33l-0.44-2.32
				c-0.67-5.89-1.04-11.3-1.13-16.53c-0.16-8.88,6.91-16.21,15.8-16.37c8.78,0.04,16.21,6.91,16.37,15.8
				c0.07,3.77,0.33,7.88,0.79,12.21c21.43,70.42,319.47,152.99,732.53,164.39c413.08,11.37,715.24-54.61,740.48-123.75
				c0.7-4.27,1.19-8.35,1.46-12.14c0.65-8.86,8.38-15.51,17.22-14.87c8.86,0.65,15.52,8.36,14.87,17.22
				c-0.38,5.18-1.07,10.71-2.04,16.45l-0.56,2.29C2207.93,1049.38,1887.66,1097.52,1560.33,1097.52z"/>
		</g>
		<g>
			<path class="st2" d="M1562.52,1097.57c-14.22,0-28.48-0.09-42.81-0.27c-16.82-0.21-34.15-0.55-51.5-1.03
				c-90.75-2.5-179.48-8.5-263.75-17.83c-109.65-12.12-469.72-60.31-499.28-171.53l-0.43-2.24c-0.67-5.7-1.06-11.29-1.16-16.6
				c-0.16-8.88,6.91-16.21,15.8-16.37c8.79,0.04,16.21,6.91,16.37,15.8c0.07,3.87,0.34,7.95,0.8,12.16
				c14.49,47.4,167.48,113.21,471.44,146.81c83.39,9.23,171.23,15.17,261.09,17.65c17.19,0.47,34.35,0.82,51.01,1.02
				c68.23,0.86,135.44-0.35,199.75-3.63c19.49-1.02,37.52-2.12,55.1-3.37c278.21-19.91,418.34-73.33,434.63-117.81
				c0.65-3.94,1.15-8.04,1.48-12.21c0.71-8.86,8.47-15.45,17.31-14.76c8.86,0.71,15.46,8.46,14.76,17.31
				c-0.45,5.6-1.14,11.12-2.07,16.41l-0.55,2.21c-33.34,102.39-363.02,133.75-463.27,140.93c-17.79,1.27-36.02,2.39-55.73,3.41
				C1670.03,1096.24,1616.71,1097.57,1562.52,1097.57z"/>
		</g>
		<g>
			<path class="st5" d="M1253.14,973.66c-0.86,13.49-5.37,23.02-11.6,33.62c-11.89,20.98-27.51,38.7-45.88,53.64
				c-55.83-6.37-113.55-14.79-166.63-24.82c133.02-139.56,175.06-207.79,217.37-289.19C1251.25,819.23,1258.44,902.6,1253.14,973.66
				z"/>
		</g>
		<g class="st3">
			<path class="st2" d="M1253.14,973.66c-0.86,13.49-5.37,23.02-11.6,33.62c-5.13,9.05-10.67,17.18-16.94,24.72l0,0.04
				c-8.72,10.84-18.36,20.3-28.94,28.89c-24.61-2.81-48.62-5.89-71.88-9.24c83.68-70.92,93.44-204.88,122.61-304.65
				c0.04-0.04,0.04-0.08,0.04-0.08s0.1,1.09,0.25,3.18C1251.37,821.4,1258.4,903.71,1253.14,973.66z"/>
		</g>
		<g>
			<path class="st2" d="M1195.65,1077.01c-0.61,0-1.22-0.03-1.82-0.1c-58.66-6.69-116.69-15.34-167.79-25
				c-5.79-1.09-10.52-5.27-12.33-10.88c-1.8-5.61-0.4-11.76,3.67-16.03c135.44-142.1,174.44-207.97,214.74-285.51
				c3.33-6.4,10.5-9.81,17.56-8.33c7.06,1.47,12.28,7.47,12.76,14.67c0.57,8.53,1.18,17.21,1.79,26.01
				c4.55,65.21,9.71,139.12,4.96,202.93c-1.16,17.86-7.72,30.35-13.78,40.66c-12.26,21.63-28.99,41.21-49.6,57.97
				C1202.92,1075.75,1199.33,1077.01,1195.65,1077.01z M1061.1,1025.55c40.71,7.04,84.83,13.37,129.5,18.59
				c15.16-13.22,27.57-28.26,36.94-44.79c5.74-9.78,8.91-16.83,9.54-26.72c0-0.05,0.01-0.11,0.01-0.17
				c3.91-52.38,0.81-112.9-2.96-169.33C1200.89,860.78,1155.91,924.09,1061.1,1025.55z"/>
		</g>
		<g>
			<path class="st5" d="M1775.51,747.26l-9.03,327.29c-91.38,6.1-182.39,7.86-275.01,5.88c0,0,0,0-0.04,0
				c-0.17,0.12-0.34,0.24-0.55,0.36c0,0-54.52-1.5-54.54-1.51c0.3-0.12,0.55-0.24,0.85-0.39c-64.59-2.42-126.72-6.52-189.99-12.5
				l9.2-333.46c0.87-39.27,34.55-71.76,74.49-70.49c18.29,4,412.17,1.26,412.27,22.55c0.04,0,0.04,0,0.04,0
				C1763.29,698.36,1776.16,721.63,1775.51,747.26z"/>
		</g>
		<g class="st3">
			<path class="st2" d="M1247.47,1056.56c5,4.56,10.65,8.38,16.78,11.39c-5.75-0.49-11.42-1.03-17.09-1.56l0.27-9.87
				L1247.47,1056.56z"/>
		</g>
		<g class="st3">
			<path class="st2" d="M1775.51,747.26l-9.03,327.29c-20.17,1.32-41.2,2.56-61.76,3.47c5.72-3.3,10.8-7.75,15.34-13.46
				c0.04,0,0.04-0.04,0.04-0.08c43.08-63.14,39.49-218.57,55.39-318.22C1775.53,746.59,1775.52,746.92,1775.51,747.26z"/>
		</g>
		<g>
			<path class="st2" d="M1563.82,1093.28c-22.81,0-45.85-0.24-69.22-0.72l-0.51,0.29h-3.22c0,0-6.76-0.18-15.57-0.42l-98.11-2.66
				l3.47-1.38c-45.07-2.43-89.52-5.73-134.61-9.99l-11.24-1.06l9.51-344.74c0.5-22.31,9.9-43.28,26.49-59
				c16.56-15.68,37.99-23.93,60.45-23.22l2.19,0.27c5.59,0.94,47.53,1.6,91.92,2.29c272.02,4.25,320.21,10.18,328.28,24.69
				c21.69,16.28,34.58,42.65,33.89,69.93v0.03l-9.33,338.27l-10.95,0.73C1700.27,1091.06,1633.14,1093.28,1563.82,1093.28z
				 M1487.52,1068.36h3.91c91.32,1.95,177.49,0.27,263.29-5.14l8.73-316.3c0.49-19.56-8.78-38.45-24.36-50.08l-7.89-0.44l-0.04-5.1
				c-33.74-9.99-216.3-12.84-306.13-14.24c-62.3-0.97-87.28-1.46-95.24-2.59c-15.79-0.31-30.69,5.59-42.35,16.64
				c-11.87,11.25-18.61,26.19-18.96,42.08l-8.89,322.22c59.31,5.41,117.69,9.15,178.07,11.41l49.53,1.78L1487.52,1068.36z
				 M1775.51,747.26h0.05H1775.51z M1731.1,685.05c0,0.03,0,0.05,0,0.08V685.05z"/>
		</g>
		<g>
			<path class="st5" d="M2036.42,543.57c-3.71,88.04-60.12,165.12-126.01,224l-0.04,0c-62.04,55.2-136.13,97.11-212.9,128.92
				c0,0,0,0.04,0.04,0.08c0,0.04,0.04,0.21,0.16,0.42c9.22,31.19,15.86,64.03,19.55,96.64l0.04,0.04
				c3.18,27.64,4.3,55.85,2.07,83.65c-75.48,3.78-151.11,4.74-227.86,3.09c0,0,0,0-0.04,0c-0.17,0.12-0.34,0.24-0.55,0.36
				c0,0-54.52-1.5-54.54-1.51c0.3-0.12,0.55-0.24,0.85-0.39c-79.4-3.06-156.02-8.34-234.09-17.13
				c-10.79-93.04,1.27-192.2,32.3-280.62c0.04-0.04,0-0.04,0-0.04c2.42-6.35,4.69-12.54,7.39-18.6
				c17.92-40.21,48-98.65,100.22-90.42c87.73,19.59,177.91,39.85,265.07,62.56c7.72,2.59,14.89,4.34,22.73,1.13l0-0.04
				c4.33-1.04,8.45-2.25,12.81-3.48c35.16-10.62,60.76-40.33,91.19-61.34c0.04,0,13.8-12.94,13.8-12.94
				c41.74-37.67,57.37-56.15,80.58-97.3c-6.78-28.71-3.52-39.63-0.27-69.51c3.67-19.75,25.93-30.32,40.78-22.85
				c11.67,5.8,13.89,30.91,18.96,45.59c0,0,0.32-1.08,1-3.02C1924.3,400.96,2038.67,438.87,2036.42,543.57z"/>
		</g>
		<g class="st3">
			<path class="st2" d="M1720.34,1058.73c-0.2,6.23-0.48,12.41-1.01,18.61c-28.44,1.4-56.38,2.45-85.6,3.1
				c-38.89-27.55-98.23-8.58-148.92-25.96c-10.57-11.97-17.14-58.97,17.7-73.14c58.92,17.46,146.52,27.64,206.17-18.12
				c7.63,5,7.05,21.47,8.54,30.42l0.04,0.04C1719.76,1015.16,1720.92,1037.05,1720.34,1058.73z"/>
		</g>
		<g class="st3">
			<path class="st2" d="M1654.76,936.88c3.25,15.48,6.34,32.31,8.82,49.75c15.93-5.09,31.31-12.61,45.08-23.42
				c0,0,2.38,2.2,5.24,6.17c-3.89-24.54-9.3-49.24-16.41-72.82c-0.03-0.03-0.03-0.06-0.03-0.06
				c77.15-32.02,150.62-73.63,212.92-128.92l0.03,0c64.8-55.48,126.73-145.99,126.01-227.05
				C1913.84,839.25,1623.23,797.99,1654.76,936.88z"/>
		</g>
		<g>
			<path class="st2" d="M1719.3,1089.4c-0.32,0-0.65-0.01-0.98-0.04c-6.64-0.53-11.59-6.35-11.06-12.99
				c3.07-38.27,0.06-79.86-9.18-127.15c-0.78-3.49-1.69-7.14-2.57-10.64c-6.08-24.39-13.65-54.71,31.44-68.14
				c152.44-71.73,243.15-156.01,285.44-265.2l0.32-0.74c21.89-46.91,11.47-96.02-8.55-123.89c-13.14-18.29-29.97-27.76-46.18-25.91
				c-21.31,2.4-41.6,23.98-57.12,60.77c-2.05,5.03-6.98,8.27-12.45,8.14c-5.43-0.14-10.19-3.57-12.05-8.6
				c-2.41-6.2-3.39-12.58-4.25-18.22c-1.67-10.94-2.75-15.3-7.58-17.6c-3.95-1.99-7.17-2.29-10.37-1.04
				c-5.41,2.1-10.62,8.56-13.94,17.28c-3.6,9.46-5.75,35.1,0.73,62.44l1.09,4.59l-2.32,4.11c-23.32,41.33-53.11,72.79-96.69,113.16
				l-1.35,1.08c-6.44,4.44-12.94,9.09-19.51,13.78c-35.22,25.18-71.64,51.22-113.36,57.98c-6.57,1.07-12.78-3.4-13.84-9.98
				s3.4-12.77,9.98-13.84c36.15-5.86,70.23-30.22,103.19-53.79c6.44-4.6,12.81-9.16,19.12-13.52
				c40.04-37.13,67.81-66.25,89.16-102.76c-6.04-29.17-4.08-57.83,1.24-71.84c5.87-15.45,15.73-26.53,27.76-31.2
				c9.61-3.74,19.89-3.09,29.73,1.87c10.08,4.81,14.93,12.6,17.59,20.61c21.38-35.1,45.03-45.45,62.53-47.42
				c25.12-2.83,50.08,10.22,68.47,35.8c22.32,31.06,38.56,88.36,11,147.81c-44.8,115.34-139.63,203.8-298.38,278.34l-1.79,0.67
				c-23.77,6.84-22.21,13.09-15.65,39.39c0.92,3.7,1.88,7.54,2.77,11.54c9.74,49.79,12.86,93.53,9.62,134.02
				C1730.81,1084.61,1725.52,1089.4,1719.3,1089.4z"/>
		</g>
		<g>
			<path class="st5" d="M1552.65,957.37c-19.93,39.87-41.86,83.58-61.78,123.42c0,0-54.52-1.5-54.54-1.51
				c0.3-0.12,0.55-0.24,0.85-0.39c-78.46-3.02-154.14-8.24-231.27-16.81c12.02-27.42,26.34-60.47,38.32-87.92
				C1346.18,968.59,1450.8,962.95,1552.65,957.37z"/>
		</g>
		<g>
			<path class="st2" d="M1199.63,1073.43c-6.16,0-11.42-4.7-12-10.96c-7.63-82.83,4.23-184.43,31.07-269.32h-0.06l1.44-4.3
				c1.14-3.5,2.3-6.98,3.49-10.42l0.39-1.16c3.36-10.05,7.05-20.21,10.98-30.2l0.51-1.32c5.18-13.26,10.98-26.83,17.22-40.32
				c2.8-6.05,9.97-8.68,16.02-5.88c6.05,2.8,8.68,9.97,5.88,16.02c-5.76,12.45-11.13,24.95-15.95,37.19v0.01l-0.71,1.84
				c-3.41,8.64-6.65,17.41-9.64,26.13l1.4,3.51l-3.81,3.61c-28.4,83.16-41.8,189.72-34.18,272.4c0.61,6.64-4.27,12.51-10.91,13.12
				C1200.37,1073.41,1200,1073.43,1199.63,1073.43z"/>
		</g>
		<g class="st3">
			<path class="st2" d="M1221.54,825.34c74.55,42.69,145.53,57.3,253.24,37.18c110.27-28.52,170.62-73.07,220.13-149.93
				c-31.15,14.72-58.39,22.07-74.03,25.51c-86.15-23.8-281-66.75-281-66.75C1288.11,664.58,1245.78,734.41,1221.54,825.34z"/>
		</g>
		<g>
			<path class="st5" d="M1199.11,892.44c-22.38,14.36-25.25,77.55-10.65,88.84c0,0,42.75,40.87,147.55,23.68
				c0,0,22.28-52.54-7.11-84.53C1328.9,920.43,1247.53,938.84,1199.11,892.44z"/>
		</g>
		<g class="st3">
			<path class="st2" d="M1188.44,981.28c0,0,42.78,40.86,147.58,23.7c0,0,4.53-10.69,6.82-25.37
				c-125.62,12.09-162.87-17.67-152.2-76.94C1172.08,923.15,1180.71,979.89,1188.44,981.28z"/>
		</g>
		<g>
			<path class="st2" d="M1287.23,1019.15c-64.24,0-96.69-23.24-104.79-30.09l-0.1,0.13c-12.92-9.99-13.23-35.69-12.77-46.28
				c0.95-21.59,7.78-48.39,24.14-58.88l6.63-4.26l5.69,5.45c43.87,42.05,119.91,25.63,120.67,25.46l5.64-1.26l3.92,4.25
				c33.36,36.31,9.97,92.81,8.96,95.2l-2.15,5.07l-5.44,0.89C1319.03,1017.88,1302.26,1019.15,1287.23,1019.15z M1198.61,976.55
				c11.2,7.92,51.53,30.9,130,19.43c3.93-12.06,11.67-43.04-3.71-64.62c-19.69,3.27-81.34,9.93-125.41-25.31
				c-5.32,7.84-9.17,21.76-9.92,37.18c-0.87,17.82,2.82,28.42,4.99,30.13L1198.61,976.55z"/>
		</g>
		<g>
			<path class="st2" d="M1921.84,764.65c-0.48,0-0.96-0.05-1.45-0.14c-84.73-16.64-136.33-139.65-138.48-144.88
				c-1.58-3.83,0.25-8.21,4.07-9.79c3.82-1.57,8.21,0.24,9.79,4.07c0.5,1.21,50.7,120.79,127.5,135.88c4.06,0.8,6.71,4.74,5.91,8.8
				C1928.49,762.17,1925.35,764.65,1921.84,764.65z"/>
		</g>
		<g>
			<g>
				<path class="st5" d="M1740.67,551.45c-3.66,0.6-7.12-1.89-7.71-5.55l-31.09-191.03c-0.6-3.66,1.89-7.12,5.55-7.71
					c38.42-6.25,74.64,19.83,80.9,58.25C1799.03,462.17,1817.77,535.23,1740.67,551.45z"/>
				<path class="st2" d="M1739.57,554.43c-2,0-3.94-0.62-5.6-1.81c-2.08-1.5-3.46-3.72-3.87-6.25l-31.09-191.03
					c-0.41-2.53,0.19-5.08,1.69-7.16c1.5-2.08,3.72-3.46,6.25-3.87c19.35-3.15,38.76,1.42,54.67,12.88s26.4,28.42,29.55,47.76
					l1.79,9.3c10.69,55.29,24,124.11-51.69,140.03l-0.13,0.02C1740.61,554.39,1740.09,554.43,1739.57,554.43z M1718.89,349.12
					c-3.65,0-7.33,0.3-11.01,0.89c-1.01,0.17-1.9,0.71-2.49,1.54c-0.6,0.83-0.84,1.84-0.67,2.85l31.09,191.03
					c0.17,1.01,0.71,1.9,1.54,2.49c0.82,0.59,1.81,0.84,2.8,0.68c70.05-14.78,57.87-77.72,47.13-133.26l-1.8-9.4
					c-2.92-17.9-12.58-33.52-27.24-44.07C1746.61,353.5,1732.94,349.12,1718.89,349.12z"/>
			</g>
			<g class="st3">
				<path class="st2" d="M1793.95,440.01c13.82,47.58,2.32,101.76-53.28,111.46c-3.66,0.6-7.11-1.91-7.71-5.57l-8.28-50.78
					C1754.54,506.2,1790.58,468.13,1793.95,440.01z"/>
			</g>
			<g>
				<path class="st2" d="M1739.55,563.61c-3.91,0-7.71-1.22-10.94-3.54c-4.07-2.93-6.76-7.28-7.56-12.23l-31.09-191.02
					c-0.81-4.95,0.36-9.92,3.3-13.99c2.93-4.07,7.28-6.76,12.23-7.56c21.76-3.56,43.6,1.6,61.5,14.48
					c17.9,12.89,29.7,31.97,33.24,53.73l1.74,9.03c10.24,52.95,25.72,132.97-58.81,150.75l-0.55,0.1
					C1741.58,563.52,1740.56,563.61,1739.55,563.61z M1714.67,358.45l29.27,179.82c50.98-13.75,46.7-57.25,34.33-121.18l-1.81-9.44
					c-2.56-15.7-10.92-29.21-23.58-38.33C1741.68,361.25,1728.27,357.49,1714.67,358.45z"/>
			</g>
			<g>
				<path class="st5" d="M1076.89,449.79c3.66-0.6,7.12,1.89,7.71,5.55l31.09,191.03c0.6,3.66-1.89,7.12-5.55,7.71
					c-38.42,6.25-74.64-19.83-80.9-58.25C1018.53,539.07,999.78,466.01,1076.89,449.79z"/>
				<path class="st2" d="M1098.66,657.9c-15.26,0-30.09-4.76-42.72-13.85c-15.91-11.45-26.4-28.42-29.55-47.76l-1.79-9.3
					c-10.7-55.29-24.01-124.11,51.69-140.03l0.13-0.02c2.54-0.41,5.08,0.19,7.16,1.68c2.08,1.5,3.46,3.72,3.87,6.25l31.09,191.03
					c0.85,5.23-2.71,10.18-7.94,11.03C1106.62,657.58,1102.62,657.9,1098.66,657.9z M1077.41,452.64
					c-70.05,14.78-57.88,77.73-47.13,133.26l1.8,9.39c2.91,17.9,12.58,33.52,27.23,44.07c14.66,10.55,32.54,14.77,50.36,11.86
					c2.08-0.34,3.5-2.31,3.16-4.39l-31.09-191.03c-0.17-1.01-0.71-1.89-1.54-2.49C1079.39,452.73,1078.41,452.49,1077.41,452.64z"/>
			</g>
			<g class="st3">
				<path class="st2" d="M1107.08,593.37l8.62,52.99c0.6,3.66-1.91,7.11-5.57,7.72c-52.42,9.14-84.46-38.34-85.35-85.69
					C1039.89,592.38,1081.41,611.32,1107.08,593.37z"/>
			</g>
			<g>
				<path class="st2" d="M1098.64,667.08c-17.17,0-33.86-5.35-48.06-15.58c-17.9-12.89-29.7-31.97-33.24-53.73l-1.74-9.03
					c-10.24-52.95-25.73-132.97,58.81-150.75l0.54-0.1c4.95-0.81,9.92,0.36,14,3.3c4.07,2.93,6.76,7.27,7.56,12.23l31.09,191.02
					c0.81,4.95-0.36,9.92-3.3,13.99c-2.93,4.07-7.27,6.76-12.23,7.56C1107.59,666.72,1103.1,667.08,1098.64,667.08z M1073.62,462.97
					c-50.98,13.74-46.7,57.25-34.33,121.18l1.81,9.43c2.56,15.71,10.91,29.21,23.58,38.33c11.2,8.07,24.62,11.84,38.21,10.88
					L1073.62,462.97z"/>
			</g>
			<g>
				<path class="st5" d="M1737.28,470.85c31.75,432.43-610.49,490.55-656.92,59.51C1048.61,97.95,1690.85,39.82,1737.28,470.85z"/>
				<path class="st2" d="M1405.41,828.78c-148.17,0-305.47-89.61-327.93-298.11c-16.51-224.87,144.85-342.53,301.76-356.73
					c156.9-14.22,336.77,72.55,360.91,296.61l0.01,0.1c16.5,224.78-144.86,342.44-301.77,356.65
					C1427.49,828.28,1416.47,828.78,1405.41,828.78z M1412.17,178.23c-10.88,0-21.69,0.49-32.41,1.46
					c-154.18,13.96-312.74,129.58-296.52,350.45c23.7,220.08,200.44,305.34,354.63,291.38c154.17-13.96,312.73-129.56,296.53-350.42
					C1712.32,266.28,1557.75,178.23,1412.17,178.23z"/>
			</g>
			<g class="st3">
				<path class="st2" d="M1730.01,425.67c93.63,464.93-616.07,561.88-650.71,89.09C1165.07,897.29,1749.64,819.04,1730.01,425.67z"
					/>
			</g>
			<g>
				<path class="st2" d="M1405.33,837.95c-152.26,0-313.89-92.07-336.97-306.3c-16.99-231.35,148.82-352.25,310.05-366.85
					c161.25-14.57,346.06,74.55,370.86,304.76l0.04,0.41c16.96,230.96-148.86,351.86-310.1,366.46
					C1428.02,837.44,1416.69,837.95,1405.33,837.95z M1412.09,187.41c-10.57,0-21.08,0.48-31.49,1.42
					c-149.86,13.57-303.96,125.95-288.2,340.65c23.02,213.61,194.8,296.48,344.65,282.92c149.81-13.56,303.87-125.88,288.22-340.46
					C1703.74,272.95,1553.55,187.41,1412.09,187.41z"/>
			</g>
			<g>
				<path class="st2" d="M1736.99,479.38c45.77,295.76-397.64,396.03-577.09,236.09C814.48,289.47,1686.73,78.89,1736.99,479.38z"/>
			</g>
			<g class="st4">
				<path class="st5" d="M1586.44,474.41c-5.28,76.22,78.38,82.4,84.36,6.23C1676.08,404.42,1592.42,398.24,1586.44,474.41z"/>
			</g>
			<g class="st4">
				<path class="st5" d="M1566.8,593.11c-7.74,33.9,38.03,43.77,44.95,9.69C1619.48,568.9,1573.71,559.03,1566.8,593.11z"/>
			</g>
			<g>
				<path class="st2" d="M1094.34,410.97c-1.47,0-2.96-0.32-4.37-1.01c-4.96-2.42-7.03-8.4-4.61-13.37
					c41.86-85.93,151.55-149.42,286.27-165.69c139.73-16.89,265.9,19.95,329.25,96.13c3.53,4.25,2.95,10.55-1.29,14.08
					c-4.25,3.53-10.55,2.95-14.08-1.29c-58.16-69.93-180.42-104.88-311.48-89.06c-128.05,15.47-231.77,74.71-270.69,154.6
					C1101.61,408.9,1098.05,410.97,1094.34,410.97z"/>
			</g>
			<g class="st4">
				<path class="st5" d="M1169.02,651.68c-89.76-203.73,45.53-314.22,223.9-319.46C1269.88,371.55,1183.32,499.55,1169.02,651.68z"
					/>
			</g>
		</g>
		<g>
			<g>
				<path class="st5" d="M1282.15,1055.59l173.87,15.16c20.58,1.8,38.9-13.57,40.7-34.18l8.06-92.53
					c1.57-18.04-10.02-34.32-26.76-39.29c-2.37-0.72-4.85-1.18-7.41-1.41l-173.85-15.16c-20.61-1.8-38.93,13.57-40.7,34.18
					l-6.41,73.28l-1.69,19.24C1246.17,1035.49,1261.57,1053.79,1282.15,1055.59z"/>
			</g>
			<g class="st3">
				<path class="st2" d="M1282.15,1055.59l173.87,15.16c20.58,1.8,38.9-13.57,40.7-34.18l8.06-92.53
					c1.57-18.04-10.02-34.32-26.76-39.29c-10.45,5.7-17.08,9.34-17.08,9.34c-14.94,73.53-39.32,108.72-131.68,102.19
					c-39.87-2.83-64.47-11.1-79.61-20.65l-1.69,19.24C1246.17,1035.49,1261.57,1053.79,1282.15,1055.59z"/>
			</g>
			<g>
				<path class="st2" d="M1459.32,1080.9c-1.38,0-2.77-0.06-4.17-0.19l-173.86-15.17c-26.14-2.28-45.55-25.4-43.27-51.54l8.08-92.54
					c2.28-26.14,25.36-45.49,51.54-43.27l173.86,15.17c12.62,1.1,24.08,7.08,32.27,16.84c8.19,9.76,12.1,22.08,10.99,34.7
					l-8.07,92.54C1504.53,1062.19,1483.7,1080.9,1459.32,1080.9z M1293.48,898.03c-14.14,0-26.21,10.85-27.46,25.19l-8.07,92.54
					c-1.32,15.15,9.93,28.55,25.08,29.88l173.86,15.17c7.3,0.62,14.44-1.63,20.1-6.39c5.66-4.76,9.14-11.4,9.77-18.69l8.07-92.54
					c0.64-7.3-1.63-14.44-6.39-20.1s-11.39-9.14-18.69-9.77l-173.86-15.17C1295.08,898.06,1294.28,898.03,1293.48,898.03z"/>
			</g>
			<g>
				<path class="st5" d="M1275.23,1054.29c2.21,0.66,4.51,1.1,6.92,1.29l173.87,15.16c15.08,1.31,28.95-6.58,35.98-19.03
					c2.57-4.52,4.23-9.65,4.7-15.15l3.6-41.11l1.19-13.56l3.3-37.86c1.8-20.6-13.6-38.9-34.18-40.7l-37.57-3.27
					c17.03,4.77,28.89,21.19,27.31,39.41l-4.34,49.98l-3.72,42.57c-1.8,20.58-20.13,35.98-40.7,34.18L1275.23,1054.29z"/>
			</g>
			<g class="st3">
				<path class="st2" d="M1275.23,1054.29c2.21,0.66,4.51,1.1,6.92,1.29l173.87,15.16c20.58,1.8,38.9-13.57,40.68-34.18l4.79-54.67
					c-5.22,9.28-14.11,20.45-26.79,20.6c-6.96,0.1-13.31-5.46-18.69-13.03l-3.72,42.57c-1.8,20.58-20.13,35.98-40.7,34.18
					L1275.23,1054.29z"/>
			</g>
			<g>
				<path class="st2" d="M1459.35,1080.9c-1.39,0-2.8-0.06-4.2-0.19l-173.87-15.17c-2.97-0.24-5.96-0.8-8.86-1.65l3.67-19.56
					l136.37,11.91c7.3,0.62,14.42-1.63,20.09-6.38c5.67-4.76,9.14-11.4,9.77-18.7l8.08-92.54c1.15-13.18-7.28-25.35-20.04-28.94
					l3.57-19.59l37.55,3.27c12.63,1.11,24.09,7.09,32.28,16.84c8.2,9.76,12.1,22.09,10.99,34.7l-8.07,92.53
					c-1.09,12.62-7.07,24.09-16.83,32.29C1481.17,1077.01,1470.48,1080.9,1459.35,1080.9z M1450.5,1060.24l6.39,0.56
					c7.29,0.61,14.42-1.63,20.09-6.38c5.67-4.76,9.14-11.4,9.77-18.7v0l8.07-92.54c0.64-7.3-1.62-14.43-6.38-20.1
					c-4.76-5.67-11.4-9.14-18.7-9.78l-5.42-0.47c4.61,8.14,6.86,17.68,6,27.54l-8.08,92.54
					C1461.36,1043.16,1457.25,1052.64,1450.5,1060.24z"/>
			</g>
			<g>
				<path class="st8" d="M1387.7,980.54c-0.28,3.42,2.28,31.45,2.28,31.45s8.75,0.71,19.5,1.59c13.43,1.09,25.45-11.92,26.85-29.08
					c1.4-17.15-8.36-31.95-21.79-33.04c-9.06-0.74-19.5-1.59-19.5-1.59S1388.15,974.96,1387.7,980.54z"/>
			</g>
			<g class="st3">
				<path class="st2" d="M1387.7,980.54c-0.28,3.42,2.28,31.45,2.28,31.45s8.75,0.71,19.5,1.59c13.43,1.09,25.45-11.92,26.85-29.08
					c1.4-17.15-8.36-31.95-21.79-33.04c-9.06-0.74-19.5-1.59-19.5-1.59S1388.15,974.96,1387.7,980.54z"/>
			</g>
			<g>
				<path class="st2" d="M1411.1,1018.64c-0.67,0-1.34-0.02-2.01-0.08l-19.5-1.59c-2.42-0.2-4.35-2.11-4.57-4.53
					c-0.61-6.67-2.58-28.74-2.29-32.31l0,0c0.48-5.88,6.79-28.97,7.5-31.59c0.64-2.32,2.79-3.87,5.23-3.66l19.5,1.59
					c8.06,0.66,15.24,5.18,20.22,12.73c4.73,7.17,6.91,16.3,6.14,25.7c-0.76,9.4-4.39,18.06-10.22,24.37
					C1425.48,1015.36,1418.44,1018.64,1411.1,1018.64z M1394.59,1007.35l15.31,1.25c4.94,0.43,9.85-1.76,13.86-6.1
					c4.31-4.67,7.01-11.21,7.6-18.39s-1.02-14.07-4.52-19.38c-3.25-4.93-7.76-7.87-12.69-8.27l-15.36-1.25
					c-2.57,9.57-5.83,22.49-6.1,25.74C1392.57,982.85,1393.51,995.18,1394.59,1007.35z"/>
			</g>
			<g>
				
					<ellipse transform="matrix(0.0812 -0.9967 0.9967 0.0812 301.7722 2289.2097)" class="st8" cx="1392.51" cy="980.93" rx="31.16" ry="24.4"/>
			</g>
			<g>
				<path class="st5" d="M1371.59,983.07c1.25-12.51,10.96-22.12,21.45-23.88c12.39-2.08,22.38,7.71,26.29,22.88
					c0.36-3.33,0.26-6.86-0.35-10.43c-2.86-16.97-17.65-24.68-30.94-22.45c-13.29,2.25-20.03,13.58-17.16,30.57
					C1371.07,980.87,1371.29,981.98,1371.59,983.07z"/>
			</g>
			<g class="st3">
				<path class="st2" d="M1389.99,1012c13.43,1.08,25.45-11.95,26.84-29.1c0.31-3.72,0.07-7.32-0.6-10.7
					c-4.39,11.61-14.02,19.38-24.53,18.53c-10.5-0.87-18.75-10.07-21.17-22.26c-1.24,3.22-2.02,6.77-2.34,10.49
					C1366.81,996.11,1376.56,1010.9,1389.99,1012z"/>
			</g>
			<g>
				<path class="st2" d="M1391.59,1017.05c-0.67,0-1.34-0.02-2.01-0.08c-16.16-1.32-27.99-18.56-26.37-38.43l0,0
					c1.62-19.87,16.09-34.95,32.24-33.66c8.06,0.66,15.24,5.18,20.22,12.73c4.73,7.17,6.91,16.3,6.14,25.7
					c-0.76,9.4-4.39,18.06-10.22,24.37C1405.97,1013.78,1398.93,1017.05,1391.59,1017.05z M1373.18,979.35
					c-1.17,14.38,6.55,26.79,17.21,27.65c4.94,0.43,9.85-1.76,13.86-6.1c4.31-4.67,7.01-11.21,7.6-18.39s-1.02-14.07-4.52-19.38
					c-3.25-4.93-7.76-7.87-12.69-8.27C1383.94,953.94,1374.35,964.98,1373.18,979.35L1373.18,979.35z"/>
			</g>
			<g>
				<path class="st2" d="M1336.27,1067.13c-0.16,0-0.32,0-0.48-0.01c-4.13-0.26-7.27-3.83-7.01-7.96l2.98-46.9
					c0.53-8.38-3.15-16.41-9.84-21.48c-10.98-8.32-16.84-21.47-15.69-35.19l5.53-66.02c0.34-4.13,3.96-7.26,8.1-6.85
					c4.13,0.34,7.19,3.97,6.85,8.1l-5.53,66.02c-0.72,8.57,2.95,16.79,9.8,21.99c10.72,8.12,16.61,20.97,15.75,34.38l-2.98,46.9
					C1343.5,1064.08,1340.19,1067.13,1336.27,1067.13z"/>
			</g>
		</g>
		<g>
			<path class="st2" d="M1563.17,1097.58c-14.39,0-28.88-0.09-43.44-0.27l-1.46-0.02c-9.03-0.13-18.07-0.26-27.17-0.48l-2.81-0.06
				c-6.65-0.15-13.34-0.3-20.06-0.49l-1.27-0.03c-10.23-0.28-20.31-0.61-30.35-0.97c-37.4-1.41-73.98-3.37-108.75-5.81
				c-22.06-1.53-43.96-3.28-65.06-5.19c-5.46-0.47-10.91-0.98-16.35-1.49l-1.02-0.09c-3.03-0.33-6.03-0.61-9.02-0.89
				c-10.51-1.04-20.85-2.13-31.06-3.27h-1.86l-0.96-0.31c-0.48-0.05-0.96-0.11-1.44-0.18c-1.1-0.11-2.19-0.23-3.26-0.37
				c-1.37-0.13-2.75-0.29-4.12-0.46c-24.75-2.82-49.09-5.95-72.23-9.28c-33.13-4.71-65.25-10-95.45-15.7
				c-110.96-20.96-300.2-67.7-320.82-145.31l-0.41-2.12c-0.68-5.38-1.08-10.98-1.21-16.64c-0.2-8.88,6.84-16.24,15.72-16.44
				c8.92-0.05,16.24,6.84,16.44,15.72c0.09,4.16,0.37,8.25,0.83,12.19c10.24,33.63,92.98,82.76,295.43,121
				c29.72,5.62,61.36,10.82,94.03,15.46c22.87,3.3,46.89,6.38,71.44,9.18c1.29,0.16,2.46,0.3,3.64,0.41l0.68,0.08
				c0.94,0.13,1.93,0.22,2.91,0.32l0.91,0.12c0.36,0.06,0.7,0.08,1.05,0.12l2.92,0.33c9.86,1.1,19.83,2.15,29.88,3.14
				c3.02,0.29,6.03,0.58,9.08,0.9l0.17,0.01c5.61,0.53,11.23,1.06,16.92,1.55c20.95,1.89,42.62,3.62,64.47,5.14
				c34.44,2.42,70.67,4.35,107.69,5.75c9.92,0.35,19.92,0.67,29.95,0.95l1.27,0.03c6.77,0.19,13.39,0.34,19.98,0.48l3.05,0.08
				c9.2,0.21,17.93,0.33,26.67,0.46l1.44,0.02c38.49,0.49,76.59,0.33,113.21-0.49c23.87-0.53,47.62-1.34,70.6-2.4
				c4.91-0.2,9.71-0.44,14.5-0.68l1.2-0.07c15.59-0.83,30.8-1.69,45.72-2.7l9.49-0.68c278.27-19.94,418.41-73.34,434.72-117.81
				c0.66-4.03,1.16-8.12,1.47-12.18c0.69-8.86,8.4-15.51,17.29-14.79c8.85,0.69,15.48,8.42,14.79,17.28
				c-0.42,5.48-1.12,11.01-2.06,16.42l-0.56,2.24c-33.37,102.36-363.02,133.74-463.26,140.92l-9.58,0.69
				c-15.21,1.02-30.56,1.89-46.13,2.72l-2.66,0.17l-0.15-0.02c-4.45,0.22-8.89,0.44-13.37,0.62c-23.15,1.06-47.16,1.88-71.28,2.43
				C1610.94,1097.33,1587.21,1097.58,1563.17,1097.58z"/>
		</g>
		<g>
			<path class="st5" d="M1709.53,932.33c54.24,81.64-48.57,124.27-223.88,91.28c0,0-29.71-47.42,17.71-73.15
				C1503.36,950.45,1631.63,993.33,1709.53,932.33z"/>
		</g>
		<g class="st3">
			<path class="st2" d="M1485.66,1023.59c165.06,27.15,221.78,1.59,236.79-43.22c-5.81,6.73-11.21,9.7-11.21,9.7
				s-62.62,36.26-189.7,14.65c-20.84-3.45-36.01-23.14-32.29-43.98C1462.78,987.09,1485.66,1023.59,1485.66,1023.59z"/>
		</g>
		<g>
			<path class="st2" d="M1594.39,1044.8c-29.67,0-63.06-3.06-99.22-9.31c-11.32-1.96-20.69-9.81-24.46-20.5
				c-9.38-26.59-3.42-50.05,16.78-66.06c7.62-6.04,17.93-8.08,27.56-5.44c24.46,6.68,109.05,25.89,170.89-7.63
				c8.49-4.61,18.46-5.16,27.37-1.5c8.61,3.54,15.08,10.62,17.76,19.44c6.26,20.58,2.56,39.39-10.69,54.39
				C1699.14,1032.27,1654.4,1044.8,1594.39,1044.8z M1506.62,962.35c-2.46,0-4.83,0.78-6.69,2.25
				c-13.37,10.6-16.85,25.31-10.35,43.74c1.36,3.87,4.82,6.72,9.01,7.45c120.54,20.83,185.87,2.9,206.82-20.83
				c8.65-9.8,10.79-21.36,6.54-35.34v0c-1.27-4.17-4.44-6.02-6.22-6.75c-3.33-1.36-7.06-1.16-10.25,0.57
				c-66.52,36.06-152.03,18.55-185.7,9.34C1508.74,962.49,1507.67,962.35,1506.62,962.35z"/>
		</g>
		<g>
			<g class="st3">
				<circle class="st2" cx="951.82" cy="1323.8" r="194.42"/>
			</g>
			<g>
				<circle class="st0" cx="942.89" cy="1301.09" r="174.84"/>
			</g>
			<g class="st9">
				<g>
					<path class="st5" d="M785.5,1293.11c17.15-95.02,108.09-158.15,203.12-140.99c45.17,8.15,83.11,33,108.67,67.02
						c-24.28-45.68-68.47-80.2-123.33-90.11c-95.02-17.16-185.96,45.97-203.12,140.99c-9,49.85,4.12,98.56,32.33,136.09
						C785.39,1372.68,778.25,1333.27,785.5,1293.11z"/>
				</g>
			</g>
			<g class="st3">
				<path class="st2" d="M911.85,1473.13c95,17.14,185.96-45.94,203.11-140.97c5.39-29.88,2.83-59.36-6.17-86.28
					c0.59,12.91-0.23,26.06-2.62,39.33c-17.15,95.03-108.09,158.16-203.12,141.01c-65.15-11.77-115.3-58.26-134.82-116.91
					C771.89,1388.94,830.05,1458.36,911.85,1473.13z"/>
			</g>
			<g>
				<path class="st2" d="M942.98,1488.44c-11.01,0-22.16-0.97-33.37-3c-49.24-8.89-92.08-36.42-120.61-77.53
					c-28.53-41.1-39.35-90.86-30.46-140.11c18.35-101.65,115.98-169.45,217.64-151.07c49.24,8.89,92.08,36.42,120.61,77.53
					c28.53,41.1,39.35,90.86,30.46,140.11C1110.92,1424.82,1031.82,1488.44,942.98,1488.44z M942.82,1138.74
					c-77,0-145.53,55.13-159.68,133.51c-7.71,42.67,1.67,85.79,26.4,121.41c24.72,35.62,61.84,59.48,104.51,67.18
					c88.08,15.86,172.69-42.83,188.59-130.91c7.71-42.67-1.67-85.79-26.4-121.41c-24.72-35.62-61.84-59.48-104.51-67.18
					C962.03,1139.59,952.35,1138.74,942.82,1138.74z"/>
			</g>
			<g>
				<circle class="st8" cx="941.21" cy="1298.67" r="111.23"/>
			</g>
			<g class="st9">
				<g>
					<path class="st5" d="M921.46,1408.14c60.46,10.91,118.3-29.25,129.21-89.71c2.38-13.09,2.35-26.08,0.2-38.47
						c-0.17,1.22-0.37,2.44-0.59,3.69c-10.91,60.46-68.75,100.63-129.21,89.71c-47.37-8.54-82.27-45.9-89.91-90.74
						C822.49,1341.71,862.25,1397.44,921.46,1408.14z"/>
				</g>
			</g>
			<g class="st3">
				<path class="st2" d="M832.1,1326.37c0.27-1.89,0.54-3.78,0.88-5.68c10.91-60.46,68.75-100.63,129.21-89.71
					c45.5,8.2,79.53,43.02,88.87,85.51c7.48-58.37-32.04-112.96-90.6-123.53c-60.42-10.9-118.29,29.22-129.2,89.68
					C828.58,1297.6,828.98,1312.42,832.1,1326.37z"/>
			</g>
			<g>
				<path class="st2" d="M941.48,1422.43c-7.39,0-14.83-0.66-22.25-2c-32.52-5.87-60.81-24.05-79.66-51.2s-25.99-60.01-20.12-92.54
					c12.12-67.14,76.59-111.92,143.74-99.78c67.14,12.12,111.9,76.61,99.78,143.74c-5.87,32.52-24.06,60.82-51.21,79.66
					C990.81,1414.86,966.46,1422.43,941.48,1422.43z M941.17,1199.93c-46.82,0-88.5,33.53-97.11,81.2
					c-4.69,25.95,1.02,52.17,16.05,73.84s37.61,36.17,63.56,40.86l0,0c25.95,4.68,52.18-1.02,73.84-16.05
					c21.66-15.03,36.17-37.61,40.86-63.56c9.67-53.57-26.04-105.02-79.62-114.7C952.85,1200.45,946.97,1199.93,941.17,1199.93z"/>
			</g>
		</g>
		<g>
			<g class="st3">
				<circle class="st2" cx="1955.78" cy="1323.8" r="194.42"/>
			</g>
			<g>
				<circle class="st0" cx="1946.84" cy="1301.09" r="174.84"/>
			</g>
			<g class="st9">
				<g>
					<path class="st5" d="M1789.46,1293.11c17.15-95.02,108.09-158.15,203.12-140.99c45.17,8.15,83.11,33,108.67,67.02
						c-24.28-45.68-68.47-80.2-123.33-90.11c-95.02-17.16-185.96,45.97-203.12,140.99c-9,49.85,4.12,98.56,32.33,136.09
						C1789.34,1372.68,1782.21,1333.27,1789.46,1293.11z"/>
				</g>
			</g>
			<g class="st3">
				<path class="st2" d="M1915.8,1473.13c95,17.14,185.96-45.94,203.11-140.97c5.39-29.88,2.83-59.36-6.17-86.28
					c0.59,12.91-0.23,26.06-2.62,39.33c-17.15,95.03-108.09,158.16-203.12,141.01c-65.15-11.77-115.3-58.26-134.82-116.91
					C1775.84,1388.94,1834,1458.36,1915.8,1473.13z"/>
			</g>
			<g>
				<path class="st2" d="M1946.93,1488.44c-11.01,0-22.16-0.97-33.37-3c-49.24-8.89-92.08-36.42-120.61-77.53
					c-28.53-41.1-39.35-90.86-30.46-140.11c18.36-101.65,115.99-169.46,217.64-151.07c49.24,8.89,92.08,36.42,120.61,77.53
					c28.53,41.1,39.35,90.86,30.46,140.11C2114.87,1424.82,2035.77,1488.44,1946.93,1488.44z M1946.77,1138.74
					c-76.99,0-145.53,55.13-159.68,133.51c-15.9,88.09,42.82,172.69,130.91,188.59l0,0c88.07,15.86,172.69-42.83,188.59-130.91
					c15.9-88.09-42.82-172.69-130.91-188.59C1965.98,1139.59,1956.3,1138.74,1946.77,1138.74z"/>
			</g>
			<g>
				<circle class="st8" cx="1945.17" cy="1298.67" r="111.23"/>
			</g>
			<g class="st9">
				<g>
					<path class="st5" d="M1925.41,1408.14c60.46,10.91,118.3-29.25,129.21-89.71c2.38-13.09,2.35-26.08,0.2-38.47
						c-0.17,1.22-0.37,2.44-0.59,3.69c-10.91,60.46-68.75,100.63-129.21,89.71c-47.37-8.54-82.27-45.9-89.91-90.74
						C1826.44,1341.71,1866.2,1397.44,1925.41,1408.14z"/>
				</g>
			</g>
			<g class="st3">
				<path class="st2" d="M1836.05,1326.37c0.27-1.89,0.54-3.78,0.88-5.68c10.91-60.46,68.75-100.63,129.21-89.71
					c45.5,8.2,79.53,43.02,88.87,85.51c7.48-58.37-32.04-112.96-90.6-123.53c-60.42-10.9-118.29,29.22-129.2,89.68
					C1832.54,1297.6,1832.93,1312.42,1836.05,1326.37z"/>
			</g>
			<g>
				<path class="st2" d="M1945.43,1422.43c-7.39,0-14.83-0.66-22.25-2l0,0c-67.14-12.12-111.9-76.6-99.78-143.74
					c12.13-67.13,76.58-111.9,143.74-99.78c67.14,12.12,111.9,76.61,99.78,143.74c-5.87,32.52-24.06,60.82-51.21,79.66
					C1994.77,1414.86,1970.41,1422.43,1945.43,1422.43z M1945.12,1199.93c-46.82,0-88.51,33.53-97.11,81.2
					c-9.67,53.57,26.04,105.02,79.62,114.7l0,0c25.95,4.68,52.17-1.02,73.84-16.05c21.66-15.03,36.17-37.61,40.86-63.56
					c9.67-53.57-26.04-105.02-79.62-114.7C1956.8,1200.45,1950.92,1199.93,1945.12,1199.93z"/>
			</g>
		</g>
		<g>
			<g class="st3">
				<circle class="st2" cx="1453.8" cy="1395.72" r="194.42"/>
			</g>
			<g>
				<circle class="st0" cx="1444.87" cy="1373.01" r="174.84"/>
			</g>
			<g class="st9">
				<g>
					<path class="st5" d="M1287.48,1365.03c17.15-95.02,108.09-158.15,203.12-140.99c45.17,8.15,83.11,33,108.67,67.02
						c-24.28-45.68-68.47-80.2-123.33-90.11c-95.02-17.16-185.96,45.97-203.12,140.99c-9,49.85,4.12,98.56,32.33,136.09
						C1287.36,1444.6,1280.23,1405.19,1287.48,1365.03z"/>
				</g>
			</g>
			<g class="st3">
				<path class="st2" d="M1413.82,1545.05c95,17.14,185.96-45.94,203.11-140.97c5.39-29.88,2.83-59.36-6.17-86.28
					c0.59,12.91-0.23,26.06-2.62,39.33c-17.15,95.03-108.09,158.16-203.12,141.01c-65.15-11.77-115.3-58.26-134.82-116.91
					C1273.87,1460.85,1332.03,1530.27,1413.82,1545.05z"/>
			</g>
			<g>
				<path class="st2" d="M1444.95,1560.36c-11.01,0-22.16-0.97-33.37-3l0,0c-101.65-18.35-169.42-115.99-151.07-217.64
					c8.89-49.24,36.43-92.08,77.53-120.61s90.86-39.36,140.11-30.46c49.24,8.89,92.08,36.42,120.61,77.53
					c28.53,41.1,39.35,90.86,30.46,140.11C1612.89,1496.73,1533.8,1560.36,1444.95,1560.36z M1416.03,1532.76
					c88.08,15.87,172.69-42.82,188.59-130.91c7.71-42.67-1.67-85.79-26.4-121.41c-24.72-35.62-61.84-59.48-104.51-67.18
					c-42.67-7.71-85.79,1.67-121.41,26.4s-59.48,61.84-67.18,104.52C1269.21,1432.24,1327.95,1516.85,1416.03,1532.76
					L1416.03,1532.76z"/>
			</g>
			<g>
				<circle class="st8" cx="1443.19" cy="1370.59" r="111.23"/>
			</g>
			<g class="st9">
				<g>
					<path class="st5" d="M1423.43,1480.06c60.46,10.91,118.3-29.25,129.21-89.71c2.38-13.09,2.35-26.08,0.2-38.47
						c-0.17,1.22-0.37,2.44-0.59,3.69c-10.91,60.46-68.75,100.63-129.21,89.71c-47.37-8.54-82.27-45.9-89.91-90.74
						C1324.46,1413.63,1364.23,1469.36,1423.43,1480.06z"/>
				</g>
			</g>
			<g class="st3">
				<path class="st2" d="M1334.07,1398.29c0.27-1.89,0.54-3.78,0.88-5.68c10.91-60.46,68.75-100.63,129.21-89.71
					c45.5,8.2,79.53,43.02,88.87,85.51c7.48-58.37-32.04-112.96-90.6-123.53c-60.42-10.9-118.29,29.22-129.2,89.68
					C1330.56,1369.52,1330.95,1384.33,1334.07,1398.29z"/>
			</g>
			<g>
				<path class="st2" d="M1443.45,1494.35c-7.39,0-14.82-0.66-22.24-2c-67.14-12.12-111.9-76.6-99.78-143.74
					c12.12-67.14,76.59-111.91,143.74-99.78c32.52,5.87,60.81,24.06,79.66,51.21c18.85,27.15,25.99,60.01,20.12,92.53
					c-5.87,32.52-24.06,60.81-51.21,79.66C1492.79,1486.77,1468.43,1494.35,1443.45,1494.35z M1443.15,1271.85
					c-46.83,0-88.51,33.53-97.11,81.2c-9.67,53.57,26.04,105.02,79.62,114.7c25.95,4.69,52.17-1.02,73.84-16.05
					c21.66-15.04,36.17-37.61,40.86-63.56c4.69-25.95-1.02-52.17-16.05-73.84c-15.04-21.66-37.61-36.17-63.56-40.86
					C1454.83,1272.36,1448.94,1271.85,1443.15,1271.85z"/>
			</g>
		</g>
	</g>
</g>
</svg>
