<svg xmlns="http://www.w3.org/2000/svg" xmlns:xlink="http://www.w3.org/1999/xlink" viewBox="0 0 4680 3120"><defs><style>.cls-1{fill:none;}.cls-2,.cls-8{fill:#fff;}.cls-2{opacity:0;}.cls-3{fill:#e4e4f4;}.cls-4{fill:#aeaece;}.cls-5{fill:#fab243;}.cls-6{fill:#ff4a66;}.cls-7{clip-path:url(#clip-path);}.cls-9{fill:#2aada6;}.cls-10{fill:#a8143b;}.cls-11{fill:#d7274d;}.cls-12{fill:#5555cd;}.cls-13{fill:#3c3ba3;}.cls-14{fill:#59c7d2;}.cls-15{fill:#2794d7;}.cls-16{fill:#157fbb;}.cls-17{fill:#228e96;}.cls-18{fill:#dd8317;}.cls-19{fill:#99dde3;}.cls-20{fill:#dcdfe5;}.cls-21{fill:#b3ce25;}.cls-22{fill:#442a19;}.cls-23{fill:#f9837d;}.cls-24{fill:#e2902a;}.cls-25{fill:#f5ae97;}.cls-26{fill:#ed856e;}.cls-27{fill:#072c35;}.cls-28{fill:#131e36;}.cls-29{fill:#06252c;}.cls-30{fill:#cb6655;}.cls-31{fill:#fc7a92;}</style><clipPath id="clip-path"><path class="cls-1" d="M2571.79,675.56v753.5a74,74,0,0,0,55.12,71.58c163.28,43.12,660.39,163.29,1098,154.11a74.08,74.08,0,0,0,72.57-74V468.86c0-54.15-56.22-90-105.31-67.12-179.67,83.66-571.9,232-1041.33,200A74,74,0,0,0,2571.79,675.56Z"/></clipPath></defs><title>08</title><g id="_08" data-name="08"><rect class="cls-2" width="4680" height="3120"/><ellipse class="cls-3" cx="2300.5" cy="2537.61" rx="1797.41" ry="222.39"/><path class="cls-4" d="M2811.22,2399.2c-321.06,0-591,25.39-668.75,59.81-41.63-12.66-107.66-21.78-184.57-24.64-92.13-31-261.54-51.83-455.27-51.83-292.11,0-528.91,47.29-528.91,105.63s236.8,105.64,528.91,105.64c182.77,0,343.88-18.52,438.89-46.67,106.72-2.67,195-17.31,230.79-37,32.65,9.14,79.43,17.43,137.2,24.49-62.07,10.47-101.55,26.2-101.55,43.8,0,31.52,126.76,57.07,283.12,57.07s283.12-25.55,283.12-57.07c0-6.67-5.67-13.06-16.08-19q26.3.23,53.1.23c181.41,0,346.5-8.11,469.83-21.37,150.07-14.31,199.88-40.72,215.2-52.67a10.8,10.8,0,0,0,.5-16.56C3452.77,2429.63,3162.61,2399.2,2811.22,2399.2Z"/><path class="cls-5" d="M3676.73,1690c-184.89,0-397.34-20.94-631.45-62.25-191.84-33.84-350-73.11-427.24-93.5a108.85,108.85,0,0,1-81-105.16V675.56a108.84,108.84,0,0,1,108.68-108.77c2.48,0,5,.08,7.49.25,42.53,2.9,85.95,4.37,129.06,4.37,403.05,0,733.9-126,895.25-201.15a108.62,108.62,0,0,1,154.7,98.6V1580.71a108.82,108.82,0,0,1-106.57,108.76C3709.66,1689.8,3693.2,1690,3676.73,1690Z"/><path class="cls-6" d="M2571.79,675.56v753.5a74,74,0,0,0,55.12,71.58c163.28,43.12,660.39,163.29,1098,154.11a74.08,74.08,0,0,0,72.57-74V468.86c0-54.15-56.22-90-105.31-67.12-179.67,83.66-571.9,232-1041.33,200A74,74,0,0,0,2571.79,675.56Z"/><g class="cls-7"><path class="cls-8" d="M2779.14,1274a8.62,8.62,0,0,1-1-2.72q-12-77.65-24.7-155.23c-.64-3.89,2.76-6.42,7.62-5.67s9.38,4.59,10,8.59q12.36,79.32,24.07,158.74c.56,3.79-2.82,5.39-7.52,3.57A17.38,17.38,0,0,1,2779.14,1274Z"/><path class="cls-9" d="M3815.42,1074c4.25,6.14,129.3-45.43,162.89-84.74,34.41-40.27,77.63-165.33,77.63-165.33s-34.63,34.93-51.1,48.56c-18.85,15.6-38.47,30.2-57.47,45.57-17.19,13.91-35.54,26.45-53.32,39.6-14.56,10.77-39.42,23.87-46.35,39.94C3837.44,1021.34,3815.42,1074,3815.42,1074Z"/><path class="cls-10" d="M2955.82,1359.91c31.78-18.31,34.74-66.74,40.6-98.84,10.17-55.67,16.55-112.1,27.82-167.54,8-39.38,38.18-112,38.18-112-1-1.28-51.47,13.86-72.15,28.05a117.17,117.17,0,0,0-10.05,7.15c-5,4.4-9.83,11.93-13.25,18.4-23.23,43.94-29.09,91.69-35.44,140.49-6,46.29-9.24,94-22,138.32-3.16,10.92-14.05,29.2-13.57,31.55.53,2.61,16.55,9.82,25.45,13.62,4.07,1.73,8,2.53,12.11,3.75,1.08.32,2.06.77,2.71.89a16.57,16.57,0,0,0,2.73,0C2945.47,1363.63,2951,1362.67,2955.82,1359.91Z"/><path class="cls-8" d="M2906.05,1346.11c-.12-.25-.24-.5-.35-.75q-42.49-100-89.16-198.12c-2.05-4.25.18-8,5-8.5s10.47,2.61,12.55,7q47.34,99.94,90,202c2,4.75-.56,8.09-5.68,7.41C2913.64,1354.43,2908.29,1350.48,2906.05,1346.11Z"/><path class="cls-8" d="M2940.15,1295.13a10.07,10.07,0,0,1-.86-2.3q-8-35.1-16.22-70.16c-1.12-4.75,2.59-8.19,8.32-7.74s11.36,4.74,12.47,9.6q8.16,35.91,16.12,71.85c1.07,4.85-2.74,8-8.47,6.92A16.88,16.88,0,0,1,2940.15,1295.13Z"/><path class="cls-8" d="M2957.31,1228.66a8.59,8.59,0,0,1-1.07-3.92l-.42-53c0-4.93,4.92-8.24,11.11-7.42s11.31,5.6,11.32,10.65q0,27.25,0,54.49c0,4.9-5,7.78-11.05,6.42A15.22,15.22,0,0,1,2957.31,1228.66Z"/><path class="cls-10" d="M3191,1353.43a54.86,54.86,0,0,0,23.88-11.75c22.26-19.17,35.29-46.29,47.59-72.32,19.39-41,35.07-84,50-126.9,38.77-111.21,71.33-224.67,111.55-335.53,13.14-36.23,43.43-106.77,43.43-106.77-1.33-1.14-97.61,72.71-135.95,118.22-2.38,2.83-5.29,5.5-6.89,7.91-7.39,11.11-12.64,28.29-18.48,42.67-16.27,40.06-30.23,81-43.58,122-27.32,84-51.53,169.49-82.75,252.25-11.54,30.61-43,82.77-41.83,90,0,.29,1.72,1.15,2.59,1.7,9.25,5.91,19,11.6,29.44,15.12,4.37,1.47,8.55,2.09,13,3.09,1.6.36,3.27,1.07,4.1,1.13A19.23,19.23,0,0,0,3191,1353.43Z"/><path class="cls-8" d="M3090.16,970c-2.09-3.68-1.34-8.74,2.41-13,5.12-5.86,13.89-8.14,19.57-4.92q92.59,52.74,182,110.67c6.64,4.22,5,14.75.05,19.41-5.74,5.4-15.12,8.42-22.46,4q-87.6-58.85-178.3-112.79A9.05,9.05,0,0,1,3090.16,970Z"/><path class="cls-8" d="M3082.3,1331.24c-.08-.16-.15-.31-.22-.47q-48.59-111.52-102.2-220.73c-2.47-5,.33-10.43,6.31-12.25s12.93.71,15.46,5.82Q3056.19,1215,3105.08,1329c2.44,5.68-.8,10.71-7.18,11.13C3091.74,1340.57,3084.9,1336.57,3082.3,1331.24Z"/><path class="cls-11" d="M3195.23,1352.16s-2.5-.76-4.1-1.12c-4.42-1-8.6-1.62-13-3.1-10.43-3.51-20.19-9.2-29.44-15.11-.87-.56-1.75-1.13-2.59-1.7-23.45-16.13-46.09-34.39-68.18-52.9-53.08-44.48-106.19-90.11-165-126.06-48.05-29.39-104.45-56.68-162.5-54.73-5.08.17-.58-.8-5.44-.17-4.05.37-6.07.55-10.11.88-19.37,2.12-39.18,3.68-58.18,6.8-7.86,1.3-16.37,5.49-21.56,11.74,0,0,4.13-1.74,17.12-5.46,13.14-3.76,29.11-4.38,41.77-3.23,4.31.39,9.33,1.76,14.06,2.9,61.74,15,116.46,53.62,165.36,92.26,52.68,41.62,100.64,90.59,154,131.14,16.19,12.29,34.67,26.29,55.74,27.8,2.09.15,4.28.25,6.39.3C3138.25,1363.06,3195.23,1352.16,3195.23,1352.16Z"/><path class="cls-9" d="M2524.58,1104.52c-14.76,4.6-12.74,35.92-12.74,35.92s18,2.89,20,3.17c2.29.31,20.8,4.39,20.55,2.36-1.36-11,6.53-34.49,6.47-34.72-.4-1.5-21.9-6.94-30.91-7.41A10.7,10.7,0,0,0,2524.58,1104.52Z"/><path class="cls-8" d="M3318.26,905.34q9.94,27.52,19.7,55.12a276.42,276.42,0,0,1,34.11-18.16q-10.08-29.12-20.36-58.15c-3.68-9-15.33-6.09-21.47-2C3323,887,3315.77,896,3318.26,905.34Z"/><path class="cls-8" d="M3639,1151.58a11.14,11.14,0,0,1-.64-2c-39.09-166.9-80.85-333.15-126.54-498.37-2.17-12.71,10.48-7.46,19.27-15.45,5.46-5,18.45-34.19,22.43-21.89,45.86,171.2,87.76,343.41,127,516.25,2.66,11.53-8.07,22.52-17.35,27C3655.09,1161,3643,1160.71,3639,1151.58Z"/><path class="cls-8" d="M3640.43,561.17c-4.77-11.5,5.8-28.54,13.38-37,5.77-6.47,21.06-23.72,31.12-14.26,100.85,141.17,190.3,290,272.5,442.7,6.59,13.52-6.5,31.8-15.95,39.09-8.07,6.22-25.24,16.66-33.8,3.85-80.61-149.32-168.16-294.9-266.59-433.22A5.78,5.78,0,0,1,3640.43,561.17Z"/><path class="cls-8" d="M3460.72,1047.09a11.5,11.5,0,0,1-.77-2.3q-30.76-139.12-64.19-277.65c-1.5-10.74,7.14-22.08,15-28.09,5.66-4.31,19.48-10.1,22.41.79q33.48,143.38,64.11,287.41c1.31,10.62-7.15,21-15.57,24.11C3475.74,1053.56,3464.81,1055.7,3460.72,1047.09Z"/><path class="cls-11" d="M3572.71,649c18.43-7.68,39-13.71,56.57-19.86,16.39-5.73,32.09-28.77,44.14-42.22,44.47-51.88,102.34-115.9,143-167.26-.48-.78-130.28,73.29-188,118.33-40.94,31.95-117,103.46-117,103.46s2.8-3.45,4-5.34c-12.12,9.5-22.41,23-33.13,33.49-37.95,37.27-85.07,71-120.82,111.11-11.47,12.88-28.78,43.46-28.78,43.46C3398.11,746.29,3479,685.93,3572.71,649Z"/><path class="cls-8" d="M2997.21,1024.51c-2.11-3.64-1.29-8.32,2.46-11.75,4.82-4.4,12.66-5.11,17.5-1.43,80.74,61.58,158.31,127,233.19,195.61,5.48,5,4.78,13-1.29,17.53-5.61,4.23-15.66,3.88-20.79-1-73.43-68.62-149.49-134.26-228.66-196.17A9.4,9.4,0,0,1,2997.21,1024.51Z"/><path class="cls-11" d="M3892.8,1086.78c12.37-11,24.38-22.81,35.69-35,18.09-19.48,49.82-62.55,49.82-62.55s-109.4,86-162.89,84.74c-87.7-2.16-198.29-40.8-292.65-76.46-61.29-23.16-122-50.37-184.93-68-54.93-15.37-111.94-22.78-167.34-10.18-58.95,13.4-111.91,49.47-164.38,78.13-9.45,5.16-25.9,19.27-25.9,19.27s6.66-4.82,10.05-7.15c20.68-14.19,49.52-23.51,72.15-28.05,17.32-3.47,38-2.74,56.76-.89,52.3,5.15,102,24.83,150.26,46.7,60.66,27.46,121,56.29,182.08,83q51.09,22.32,103.27,42.45c36.44,14,72.52,29.66,110.72,36.75C3751.1,1205.38,3833.16,1140,3892.8,1086.78Z"/></g><path class="cls-8" d="M2651.34,695.74q52.38,6.87,105.17,9.76t105.6,1.78q52.82-1.11,105.44-6.18,53.14-5.13,105.82-14.19,52.07-9,103.33-21.85,6.43-1.62,12.86-3.3c5.06-1.32,8.63-7.2,7-12.3a10.19,10.19,0,0,0-12.3-7q-50.86,13.29-102.62,22.74-25.85,4.71-51.88,8.45l-6.06.86-3.54.49-1.52.21-.37,0q-6.59.86-13.16,1.69-12.91,1.59-25.86,2.95-52.29,5.49-104.88,7.05t-105.1-.83q-52.52-2.39-104.74-8.73c-4.4-.53-8.78-1.09-13.17-1.67-5.21-.68-10.22,5.09-10,10,.27,6,4.42,9.27,10,10Z"/><path class="cls-8" d="M2902.64,765.06c5.23,0,10.24-4.6,10-10a10.17,10.17,0,0,0-10-10c-5.23,0-10.24,4.6-10,10a10.18,10.18,0,0,0,10,10Z"/><path class="cls-8" d="M2947.47,764.37c5.24,0,10.25-4.6,10-10a10.17,10.17,0,0,0-10-10c-5.23,0-10.24,4.6-10,10a10.18,10.18,0,0,0,10,10Z"/><path class="cls-8" d="M2996,740.18l-.9,0a10.28,10.28,0,0,0-10,10l.36,2.66a10,10,0,0,0,2.57,4.41l2,1.57a10,10,0,0,0,5,1.36l.9,0a11.11,11.11,0,0,0,7.07-2.93,7.55,7.55,0,0,0,2.07-3.21,7.65,7.65,0,0,0,.86-3.86l-.36-2.65a9.94,9.94,0,0,0-2.57-4.42l-2-1.56a9.91,9.91,0,0,0-5-1.37Z"/><path class="cls-8" d="M2646.42,814.28q40.68,6.36,81.77,9.48c26.74,2.06,53.54,3.15,80.35,3.5,27,.35,54,0,81-1s53.79-2.37,80.65-4.14,53.69-3.83,80.51-6l10-.82c5.2-.43,10.26-4.3,10-10-.22-5.05-4.41-10.46-10-10-53.64,4.38-107.33,8.48-161.12,10.59-53.38,2.09-106.88,2.22-160.2-1.34q-22.47-1.5-44.85-3.92-11.21-1.21-22.37-2.68l-.53-.07-3.2-.44c-1.86-.25-3.72-.52-5.58-.79-3.72-.53-7.44-1.1-11.15-1.68-2.75-.43-5.21-.45-7.71,1a10.2,10.2,0,0,0-4.59,6c-1.09,4.78,1.46,11.44,7,12.3Z"/><path class="cls-8" d="M2652.76,757.58q38.72,4.68,77.67,6.94t77.71,2q21.92-.12,43.81-1a10.54,10.54,0,0,0,7.07-2.93,10,10,0,0,0,0-14.14,10.05,10.05,0,0,0-7.07-2.93q-39,1.58-78,.71t-77.62-4.18q-21.82-1.86-43.59-4.5c-2.36-.29-5.46,1.32-7.07,2.93a10,10,0,0,0,0,14.14l2,1.56a9.94,9.94,0,0,0,5,1.37Z"/><path class="cls-5" d="M1041.46,1672.9c-75.84,0-137.54-61.77-137.54-137.68V557a137.67,137.67,0,0,1,108.49-134.51c143.87-31.32,299.79-47.2,463.42-47.2,170.88,0,350.39,17.1,533.56,50.81,151.46,27.89,272.82,61.17,348,84.19a137.67,137.67,0,0,1,97.36,131.59v720.41c0,75.88-61.7,137.61-137.54,137.61-2.43,0-4.89-.06-7.32-.19-64.84-3.4-130.1-5.13-193.94-5.13-502,0-858.07,106.12-1025.64,169.38a137.68,137.68,0,0,1-48.8,9Z"/><path class="cls-12" d="M938.65,557v978.26c0,72,72,121.64,139.35,96.21C1283.23,1554,1708.72,1433.35,2311.68,1465A102.89,102.89,0,0,0,2420,1362.25V641.84a102.91,102.91,0,0,0-72.8-98.39c-198.34-60.75-770.75-208.23-1327.37-87.06A103,103,0,0,0,938.65,557Z"/><path class="cls-13" d="M1960.55,1231.52c-.17-8.33-.25-12.49-.41-20.83q-28.67-4.61-57.4-8.54c-15.37-29.18-43.69-52.25-74-63.24q-1.1-85.68-2.2-171.35c9,1.73,13.46,2.62,22.42,4.44,2.1.42,3.81-.79,3.78-2.69-.1-6.73-.14-10.1-.24-16.85a4.86,4.86,0,0,0-3.87-4.27q-50.25-10.5-100.82-19.2a3,3,0,0,0-3.8,3l.15,17.53a4.56,4.56,0,0,0,3.87,4.22c9,1.44,13.52,2.18,22.53,3.71q.88,87.45,1.76,174.91a97,97,0,0,0-72.77,50.46q-29.92-1.6-59.86-2.49c-14.57-29.52-41.72-52.9-74-61.76l-.18-187c9,.76,13.52,1.16,22.54,2a3.44,3.44,0,0,0,3.85-3.44c0-7.4,0-11.1,0-18.5a4.37,4.37,0,0,0-3.86-4.19q-50.57-5-101.25-8.21a3.66,3.66,0,0,0-3.86,3.72c0,7.67,0,11.51,0,19.18a4.09,4.09,0,0,0,3.84,4.14c9,.46,13.55.71,22.59,1.26q-.12,95.31-.25,190.63c-33.74,8.88-60.14,33.86-74.19,64.66q-25.52,1.37-51,3.25c-13.86-29-39.39-51.82-72.5-58.21l1.77-204.18c9-.19,13.48-.26,22.48-.37a4.12,4.12,0,0,0,3.87-4.17l.15-20.11a4,4,0,0,0-3.8-4.12q-50.44.28-100.82,2.41a4.38,4.38,0,0,0-3.87,4.45c-.1,8.32-.15,12.49-.24,20.81,0,2.4,1.68,4.23,3.78,4.06,9-.49,13.47-.71,22.46-1.11l-2.19,207.8c-34.18,13.41-59.88,42.46-73.93,76.18q-28.82,4.53-57.56,9.73c-.16,11-.24,16.57-.41,27.61l11.09-2.11q-1.6,111.55-3.22,223.11c6.48-1.64,9.72-2.45,16.21-4l3.09-222q11-2,22-3.8a149.74,149.74,0,0,0-3.24,29.08c-.66,61.94,46.21,117,111.86,104.84,62.19-11.52,114.69-71.23,114.65-135.17a117.13,117.13,0,0,0-3.09-26.42c2.82-.23,5.63-.47,8.45-.69q-.52,98.45-1.06,196.89c6.54-.9,9.8-1.34,16.34-2.2q.48-97.93,1-195.87l9.47-.6a120.2,120.2,0,0,0-2.85,25.67c-.06,61.82,50.93,112,113.71,107.13,58.17-4.51,114.56-52.2,113.76-113.53a105.48,105.48,0,0,0-3-23.7c4.17.1,8.35.19,12.52.31q.48,94.17.94,188.33c6.54-.22,9.81-.32,16.36-.5q-.54-93.65-1.07-187.28,7.11.28,14.23.62a94.85,94.85,0,0,0-2.84,24c.67,61,55.54,107.41,114.65,109.56,53.33,1.94,113-31.8,111.86-91.32a95.86,95.86,0,0,0-3.19-22.63q10,1.32,19.93,2.71,1.54,85.38,3.08,170.76c6.49.51,9.73.77,16.21,1.33l-3.21-169.72C1952.74,1230.31,1955.34,1230.71,1960.55,1231.52Z"/><path class="cls-3" d="M1534.74,1096.08l-.18-187c9,.75,13.53,1.15,22.55,2a3.44,3.44,0,0,0,3.84-3.44c0-7.4,0-11.1,0-18.49a4.36,4.36,0,0,0-3.85-4.2q-50.57-5-101.25-8.21a3.66,3.66,0,0,0-3.86,3.72l0,19.18a4.1,4.1,0,0,0,3.85,4.14c9,.46,13.55.71,22.59,1.26q-.13,95.31-.25,190.63c-51.08,13.45-85.35,63.76-85.4,115.34-.07,61.82,50.93,112,113.71,107.14,58.17-4.52,114.56-52.21,113.76-113.54C1619.51,1154.61,1582.75,1109.28,1534.74,1096.08Z"/><path class="cls-14" d="M1586.71,1205.05c.13,42.89-38.46,78.79-80.3,80.71-42.8,2-80.94-32.55-80.28-76.15a87.25,87.25,0,0,1,13.1-44.93q67.21-2.6,134.45-1.89A76.34,76.34,0,0,1,1586.71,1205.05Z"/><path class="cls-3" d="M1280.39,1105.32l1.77-204.18c9-.19,13.48-.26,22.47-.37a4.11,4.11,0,0,0,3.88-4.17l.15-20.11a4,4,0,0,0-3.8-4.12q-50.44.28-100.82,2.41a4.4,4.4,0,0,0-3.88,4.45c-.09,8.33-.14,12.49-.23,20.81,0,2.4,1.67,4.23,3.78,4.06,9-.48,13.47-.71,22.46-1.11l-2.19,207.8c-52.81,20.72-85.43,78.77-86,133.72-.66,61.94,46.2,117,111.86,104.85,62.18-11.53,114.69-71.24,114.64-135.18C1364.44,1164.07,1331.38,1115.16,1280.39,1105.32Z"/><path class="cls-15" d="M1331.11,1217.3c-.34,45.33-35.77,88.58-80.89,96-45.4,7.43-80.07-30.76-79-74.55.07-2.91.21-5.8.48-8.63q79.27-12.8,159.09-20.89C1331,1211.82,1331.13,1214.5,1331.11,1217.3Z"/><path class="cls-3" d="M1797.75,1116.46l-2.19-171.35c9,1.73,13.45,2.62,22.42,4.44,2.1.43,3.8-.78,3.78-2.68-.1-6.74-.15-10.11-.24-16.85a4.89,4.89,0,0,0-3.87-4.28q-50.25-10.5-100.82-19.2a3.06,3.06,0,0,0-3.81,3c.06,7,.1,10.52.16,17.53a4.55,4.55,0,0,0,3.87,4.22c9,1.44,13.52,2.18,22.53,3.71l1.76,174.91c-48.28,6.36-84.61,48-84.08,96.52.66,61,55.54,107.41,114.64,109.56,53.34,1.94,113-31.79,111.87-91.32C1882.82,1175.05,1842.48,1132.65,1797.75,1116.46Z"/><path class="cls-6" d="M1846.39,1243.49c-10.86,29.83-45.47,43.31-74.88,42.17-32.67-1.26-64.24-22.31-76.18-53Q1771,1235.94,1846.39,1243.49Z"/><path d="M1092.49,1196.7c-.17,11-.25,16.57-.41,27.61l11.09-2.11q-1.62,111.55-3.22,223.11c6.48-1.64,9.72-2.45,16.2-4l3.09-222q124.56-22.15,250.6-32.16-.54,98.45-1.07,196.89c6.54-.9,9.81-1.34,16.35-2.2q.48-97.93,1-195.87,121.7-8.09,243.57-4.72.46,94.17.94,188.33c6.54-.22,9.81-.32,16.35-.5q-.53-93.64-1.06-187.28,127.92,5.21,254.64,23,1.54,85.38,3.08,170.76c6.48.51,9.72.77,16.2,1.33q-1.59-84.87-3.2-169.72c5.21.78,7.81,1.18,13,2l-.4-20.83A2477.46,2477.46,0,0,0,1092.49,1196.7Z"/><path class="cls-13" d="M1908.47,718.65a7.65,7.65,0,0,0,6,3.7,7.09,7.09,0,0,0,3.43-.57l93.71-41.31a5.5,5.5,0,0,0,2.36-7.84,6.71,6.71,0,0,0-8.31-3.21l-94.45,40.77A5.81,5.81,0,0,0,1908.47,718.65Z"/><path class="cls-13" d="M2341.22,866.72l-33-31.23.14-115.63a5.62,5.62,0,0,0-2-4.39l-90.06-71.32.26-56.23a6.2,6.2,0,0,0-4.52-6c-2.52-.52-4.58,1.35-4.59,4.18l-.28,57L2102,702.72l-98.49-67.82a6.51,6.51,0,0,0-6-.86L1876.3,681.8a5.77,5.77,0,0,0-3.81,5.29l-2.22,131a6.49,6.49,0,0,0,3.65,5.79l120.37,62.86a6.27,6.27,0,0,0,3,.7,6.59,6.59,0,0,0,3.06-.85L2102.07,829l106,75.23a4,4,0,0,0,2.55.76,4.24,4.24,0,0,0,2.25-.76l90.54-61.13,33.21,31.14a3.2,3.2,0,0,0,2.28.92,3.63,3.63,0,0,0,3-1.91A5.51,5.51,0,0,0,2341.22,866.72Zm-244.45-47.59-99.27,55.28-112.64-59.84,2-122.27,113.44-45.78,97.4,66.21Zm203.56,14.28c-.1.13-.21.25-.3.39a5,5,0,0,0-.43.83l-88.67,59-103.35-74.29.9-107.14L2212,652.55l88.46,69.27Z"/><path class="cls-8" d="M1899,711.2a7.68,7.68,0,0,0,6,3.69,7,7,0,0,0,3.44-.56l93.7-41.32a5.49,5.49,0,0,0,2.36-7.83,6.7,6.7,0,0,0-8.31-3.21l-94.45,40.77A5.81,5.81,0,0,0,1899,711.2Z"/><path class="cls-8" d="M2331.76,859.26l-33-31.23.15-115.63a5.66,5.66,0,0,0-2-4.38l-90.06-71.32.26-56.24a6.22,6.22,0,0,0-4.52-6c-2.52-.52-4.58,1.36-4.59,4.19l-.28,57L2092.5,695.27,1994,627.44a6.51,6.51,0,0,0-6-.86l-121.14,47.77a5.77,5.77,0,0,0-3.81,5.29l-2.22,131a6.47,6.47,0,0,0,3.65,5.78l120.38,62.87a6.32,6.32,0,0,0,3,.7,6.59,6.59,0,0,0,3.06-.85l101.67-57.58,106.06,75.24a4.08,4.08,0,0,0,2.54.76,4.33,4.33,0,0,0,2.25-.76L2294,835.67l33.21,31.15a3.31,3.31,0,0,0,2.28.92,3.63,3.63,0,0,0,3-1.91A5.51,5.51,0,0,0,2331.76,859.26Zm-244.45-47.58L1988,867,1875.4,807.11l2-122.26,113.44-45.78,97.4,66.21ZM2290.87,826a4,4,0,0,0-.3.39,5.34,5.34,0,0,0-.43.82l-88.67,59.05-103.35-74.29.9-107.14,103.56-59.69L2291,714.37Z"/><path class="cls-3" d="M1055.18,597.35c91.56-15.46,182.47-26.83,275.32-34.41s185.88-11.18,279-10.81q78.58.32,157.09,4.41c6.06.32,11.84-5.55,11.57-11.58a11.82,11.82,0,0,0-11.57-11.57q-140.15-7.3-280.56-2.57-140.23,4.74-279.74,21.5Q1127.38,561.81,1049,575c-6,1-9.88,8.71-8.09,14.24,2.1,6.47,7.83,9.17,14.24,8.09Z"/><path class="cls-3" d="M1062.08,696.77q64.05-15.36,129.17-25.63,18.36-2.89,36.78-5.37l-3.07.42q48.45-6.51,97.24-10.17t97.66-4.43q27.48-.44,55,0c6.06.11,11.86-5.4,11.58-11.57a11.79,11.79,0,0,0-11.58-11.58q-41-.72-82,.6t-81.88,4.66q-40.87,3.33-81.56,8.7-41.8,5.5-83.3,13-40.35,7.34-80.31,16.68-4.9,1.14-9.82,2.33c-5.9,1.41-10,8.42-8.09,14.24a11.81,11.81,0,0,0,14.24,8.08Z"/><path class="cls-3" d="M1062.61,787.56q28.91-7.75,58.19-14.06t59.1-11.18q16.69-2.73,33.48-5l-3.08.41q51.85-6.94,104.19-9.37,14.8-.69,29.64-1a12,12,0,0,0,8.18-3.4,11.73,11.73,0,0,0,3.39-8.18c-.27-6.16-5.09-11.72-11.57-11.58q-28.11.6-56.18,2.51t-56.27,5.18q-29.19,3.39-58.21,8.12-27.75,4.53-55.27,10.37t-55,13c-2.25.59-4.51,1.19-6.76,1.8a12,12,0,0,0-6.92,5.32,11.58,11.58,0,0,0,13.08,17Z"/><path class="cls-15" d="M1591.7,2407.92c-41.74,0-88.41-1.35-140-4.69-42.87-2.78-75.6-31-76.13-65.66l-3.81-210.37,36.47-.56,3.81,210.37c.23,15,19.08,28.34,42,29.82,151.85,9.84,260,2.12,324-6.09,15.32-2,28.14-8.92,34.31-18.6,3.49-5.48,4.33-11.14,2.52-16.82l-.4-1.26-55.65-220.38,36-6,55.23,217.89c4.55,15.6,2.11,31.92-6.92,46.12-12.1,19-34.12,31.81-60.43,35.18C1739,2402.52,1675.23,2407.92,1591.7,2407.92Z"/><path class="cls-16" d="M1575.82,2415.29c-41.73,0-88.4-1.35-140-4.69-42.87-2.78-75.6-31-76.13-65.65l-3.81-210.38,36.47-.56,3.81,210.38c.23,15,19.08,28.33,42,29.82,151.84,9.83,260,2.11,324-6.1,15.32-2,28.14-8.92,34.31-18.6,3.49-5.48,4.33-11.14,2.52-16.82l-.4-1.26L1743,2111.05l36-6L1834.24,2323c4.55,15.6,2.11,31.92-6.93,46.12-12.09,19-34.11,31.81-60.43,35.18C1723.14,2409.89,1659.35,2415.29,1575.82,2415.29Z"/><path class="cls-16" d="M1411,2549.72c-101.9,0-179.7-8.78-233.06-17.91a97,97,0,0,1-77.88-118.2l90.73-341.43,35.47,8.49-90.73,341.44a60.51,60.51,0,0,0,48.56,73.76c77.91,13.33,209.59,25.86,394.47,9.89a60.32,60.32,0,0,0,55.32-59.63l4.64-365.36,36.47.42-4.64,365.36a97,97,0,0,1-88.65,95.55C1518.82,2547.53,1461.9,2549.72,1411,2549.72Z"/><path class="cls-15" d="M1389.05,2556.55c-101.9,0-179.7-8.77-233.07-17.9a97,97,0,0,1-77.87-118.2L1168.84,2079l35.47,8.49-90.73,341.44a60.51,60.51,0,0,0,48.56,73.76c77.91,13.33,209.59,25.87,394.47,9.9a60.33,60.33,0,0,0,55.31-59.63l4.64-365.37,36.48.42-4.64,365.37a97,97,0,0,1-88.65,95.54C1496.87,2554.36,1440,2556.55,1389.05,2556.55Z"/><path class="cls-17" d="M1023.74,2030.26v70.79c0,23.16,198,41.93,442.31,41.93s442.32-18.77,442.32-41.93v-70.79Z"/><ellipse class="cls-14" cx="1466.05" cy="2030.26" rx="442.31" ry="41.92"/><path class="cls-8" d="M1709.88,1833.62H1445.6c-14,0-25.42-15.63-25.42-34.85,0-9.53,2.82-18.44,7.94-25.16,4.72-6.2,10.92-9.63,17.48-9.63h264.23a32.83,32.83,0,0,0-6.61,6.56c-5.53,7.22-9,17.22-9,28.23C1694.25,1813.74,1700.55,1826.81,1709.88,1833.62Z"/><path class="cls-18" d="M1724,1833.62l.51,10.14a9.2,9.2,0,0,1-1.74.11H1445.6a29.88,29.88,0,0,1-16.55-5.13,40.76,40.76,0,0,1-6.11-5.12c-7.93-8.3-13-20.85-13-34.85,0-11.78,3.54-22.9,10-31.36a34.69,34.69,0,0,1,3-3.43,32.54,32.54,0,0,1,6.16-5.13,29.82,29.82,0,0,1,16.5-5.12h277.14a10.1,10.1,0,0,1,1.74.1L1724,1764H1445.6c-6.56,0-12.76,3.43-17.48,9.63-5.12,6.72-7.94,15.63-7.94,25.16,0,19.22,11.37,34.85,25.42,34.85Z"/><path class="cls-5" d="M1429.05,1838.74a29.88,29.88,0,0,0,16.55,5.13h-89c-19.68,0-35.72-20.24-35.72-45.1s16-45,35.72-45h89a29.82,29.82,0,0,0-16.5,5.12,32.54,32.54,0,0,0-6.16,5.13,34.69,34.69,0,0,0-3,3.43c-6.5,8.46-10,19.58-10,31.36,0,14,5.08,26.55,13,34.85A40.76,40.76,0,0,0,1429.05,1838.74Z"/><path class="cls-8" d="M1731.64,1923.76H1468.23c-14,0-25.42-15.63-25.42-34.79,0-9.53,2.82-18.45,7.94-25.22,4.72-6.2,10.91-9.63,17.48-9.63h263.35a32.58,32.58,0,0,0-6.61,6.56c-5.53,7.28-9,17.22-9,28.29C1716,1903.93,1722.31,1917,1731.64,1923.76Z"/><path class="cls-14" d="M1746.09,1923.76,1746,1934H1468.23a30,30,0,0,1-16.56-5.13,40.13,40.13,0,0,1-6.09-5.12c-7.95-8.25-13-20.8-13-34.79,0-11.74,3.54-22.91,10-31.42a37.87,37.87,0,0,1,3-3.43,32.4,32.4,0,0,1,6.19-5.13,29.86,29.86,0,0,1,16.51-5.12H1746l.1,10.25H1468.23c-6.57,0-12.76,3.43-17.48,9.63-5.12,6.77-7.94,15.69-7.94,25.22,0,19.16,11.38,34.79,25.42,34.79Z"/><path class="cls-19" d="M1451.67,1928.88a30,30,0,0,0,16.56,5.13h-165.9c-19.68,0-35.72-20.19-35.72-45s16-45.1,35.72-45.1h165.9a29.86,29.86,0,0,0-16.51,5.12,32.4,32.4,0,0,0-6.19,5.13,37.87,37.87,0,0,0-3,3.43c-6.46,8.51-10,19.68-10,31.42,0,14,5.07,26.54,13,34.79A40.13,40.13,0,0,0,1451.67,1928.88Z"/><path class="cls-8" d="M1405.77,1833.62h-15.84a65,65,0,0,1,0-69.64h15.84a64.67,64.67,0,0,0,0,69.64Z"/><path class="cls-8" d="M1376.5,1833.62h-25.92s0-.1-.11-.15c-8.75-6.06-14.52-17.43-14.52-34.67,0-17,6.89-27.91,14.46-34.67.06-.05.06-.1.12-.15h25.92a64.72,64.72,0,0,0,0,69.64Z"/><path class="cls-8" d="M1347.89,1923.8h-40.07c-13.84,0-25.47-15.94-25.47-34.8s11.63-34.84,25.47-34.84h40a65,65,0,0,0,.05,69.64Z"/><path class="cls-8" d="M1420.18,1923.8h-35.87a64.94,64.94,0,0,1,0-69.64h35.87a64.94,64.94,0,0,0,0,69.64Z"/><path class="cls-20" d="M1710,1764a33.63,33.63,0,0,0-6.61,6.56,45.07,45.07,0,0,0-8.66,22.85l-149.12,40.23h-99.84c-14,0-25.42-15.63-25.42-34.85,0-9.53,2.83-18.44,8-25.16,4.72-6.2,10.91-9.63,17.47-9.63Z"/><path class="cls-20" d="M1733.71,1854.12a32.08,32.08,0,0,0-6.61,6.56,45.62,45.62,0,0,0-8.71,23.27l-148.71,39.81h-99.32c-14,0-25.43-15.63-25.43-34.79a41.81,41.81,0,0,1,8-25.22c4.72-6.2,10.91-9.63,17.48-9.63Z"/><path class="cls-8" d="M1731.64,2013.9H1468.23c-14,0-25.42-15.63-25.42-34.79,0-9.53,2.82-18.45,7.94-25.22,4.72-6.2,10.91-9.63,17.48-9.63h263.35a32.58,32.58,0,0,0-6.61,6.56c-5.53,7.28-9,17.22-9,28.29C1716,1994.07,1722.31,2007.09,1731.64,2013.9Z"/><path class="cls-16" d="M1746.09,2013.9l-.1,10.25H1468.23a30,30,0,0,1-16.56-5.13,40.13,40.13,0,0,1-6.09-5.12c-7.95-8.25-13-20.8-13-34.79,0-11.74,3.54-22.91,10-31.42a37.87,37.87,0,0,1,3-3.43,32.4,32.4,0,0,1,6.19-5.13,29.86,29.86,0,0,1,16.51-5.12H1746l.1,10.25H1468.23c-6.57,0-12.76,3.43-17.48,9.63-5.12,6.77-7.94,15.69-7.94,25.22,0,19.16,11.38,34.79,25.42,34.79Z"/><path class="cls-15" d="M1451.67,2019a30,30,0,0,0,16.56,5.13h-165.9c-19.68,0-35.72-20.19-35.72-45s16-45.1,35.72-45.1h165.9a29.86,29.86,0,0,0-16.51,5.12,32.4,32.4,0,0,0-6.19,5.13,37.87,37.87,0,0,0-3,3.43c-6.46,8.51-10,19.68-10,31.42,0,14,5.07,26.54,13,34.79A40.13,40.13,0,0,0,1451.67,2019Z"/><path class="cls-8" d="M1347.89,2013.94h-40.07c-13.84,0-25.47-15.94-25.47-34.8s11.63-34.84,25.47-34.84h40a65,65,0,0,0,.05,69.64Z"/><path class="cls-8" d="M1420.18,2013.94h-35.87a64.94,64.94,0,0,1,0-69.64h35.87a64.94,64.94,0,0,0,0,69.64Z"/><path class="cls-20" d="M1731.74,1944.28a31.79,31.79,0,0,0-6.6,6.56,45.63,45.63,0,0,0-8.72,23.27l-148.71,39.81h-99.32c-14,0-25.43-15.63-25.43-34.79a41.81,41.81,0,0,1,8-25.22c4.72-6.2,10.92-9.63,17.48-9.63Z"/><path class="cls-4" d="M1475.57,1781.19c30.84-.86,61.69-.64,92.53-1,30.84.36,61.68.14,92.52,1-30.84.86-61.68.64-92.52,1C1537.26,1781.83,1506.41,1782.05,1475.57,1781.19Z"/><path class="cls-4" d="M1445.45,1801.86c21.8-.7,43.59-.52,65.39-.82,21.8.29,43.6.12,65.39.82-21.79.7-43.59.53-65.39.82C1489,1802.38,1467.25,1802.56,1445.45,1801.86Z"/><path class="cls-4" d="M1503.12,1816.71c30.78-.7,61.55-.52,92.33-.82,30.78.29,61.56.12,92.34.82-30.78.7-61.56.53-92.34.82C1564.67,1817.23,1533.9,1817.41,1503.12,1816.71Z"/><path class="cls-4" d="M1493.85,1807.92c32.32-.7,64.65-.52,97-.82,32.32.29,64.65.12,97,.82-32.32.7-64.65.53-97,.82C1558.5,1808.44,1526.17,1808.62,1493.85,1807.92Z"/><path class="cls-4" d="M1493.85,1791.22c32.32-1.07,64.65-.79,97-1.24,32.32.44,64.65.17,97,1.24-32.32,1.06-64.65.8-97,1.23C1558.5,1792,1526.17,1792.28,1493.85,1791.22Z"/><path class="cls-4" d="M1629.35,1773.91c9.74-.7,19.48-.52,29.22-.82,9.74.29,19.48.12,29.22.82-9.74.7-19.48.53-29.22.82C1648.83,1774.43,1639.09,1774.61,1629.35,1773.91Z"/><path class="cls-4" d="M1472.4,1821.87c34.18-.7,68.35-.52,102.53-.82,34.17.29,68.34.12,102.51.82-34.17.7-68.34.53-102.51.82C1540.75,1822.39,1506.58,1822.57,1472.4,1821.87Z"/><path class="cls-4" d="M1467.37,1796c13.7-1,27.4-1.09,41.09-1.24,13.7.15,27.4.22,41.09,1.24-13.69,1-27.39,1.09-41.09,1.24C1494.77,1797.05,1481.07,1797,1467.37,1796Z"/><path class="cls-4" d="M1499.78,1868.73c30.84-.86,61.68-.64,92.52-1,30.85.36,61.69.14,92.53,1-30.84.86-61.68.64-92.53,1C1561.46,1869.37,1530.62,1869.59,1499.78,1868.73Z"/><path class="cls-4" d="M1469.65,1889.4c21.8-.7,43.6-.52,65.39-.82,21.8.29,43.6.12,65.4.82-21.8.7-43.6.53-65.4.82C1513.25,1889.92,1491.45,1890.1,1469.65,1889.4Z"/><path class="cls-4" d="M1527.32,1904.25c30.78-.7,61.56-.52,92.34-.82,30.78.29,61.55.12,92.33.82-30.78.7-61.55.53-92.33.82C1588.88,1904.77,1558.1,1905,1527.32,1904.25Z"/><path class="cls-4" d="M1518.06,1895.46c32.32-.7,64.64-.52,97-.82,32.32.29,64.65.12,97,.82-32.32.7-64.65.53-97,.82C1582.7,1896,1550.38,1896.16,1518.06,1895.46Z"/><path class="cls-4" d="M1518.06,1878.75c32.32-1.06,64.64-.79,97-1.23,32.32.43,64.65.17,97,1.23-32.32,1.07-64.65.81-97,1.24C1582.7,1879.55,1550.38,1879.82,1518.06,1878.75Z"/><path class="cls-4" d="M1653.55,1861.45c9.74-.7,19.48-.52,29.22-.82,9.74.29,19.48.12,29.22.82-9.74.7-19.48.53-29.22.82C1673,1862,1663.29,1862.15,1653.55,1861.45Z"/><path class="cls-4" d="M1496.61,1909.41c34.17-.7,68.34-.52,102.52-.82,34.17.29,68.34.12,102.52.82-34.18.7-68.35.53-102.52.82C1565,1909.93,1530.78,1910.11,1496.61,1909.41Z"/><path class="cls-4" d="M1491.58,1883.5c13.69-1,27.39-1.09,41.09-1.24,13.69.15,27.39.22,41.09,1.24-13.7,1-27.4,1.09-41.09,1.24C1519,1884.59,1505.27,1884.52,1491.58,1883.5Z"/><path class="cls-4" d="M1496.18,1962.42c30.84-.86,61.68-.64,92.53-1,30.84.36,61.68.14,92.52,1-30.84.86-61.68.64-92.52,1C1557.86,1963.06,1527,1963.28,1496.18,1962.42Z"/><path class="cls-4" d="M1466.05,1983.09c21.8-.7,43.6-.52,65.4-.82,21.8.29,43.59.12,65.39.82-21.8.7-43.59.53-65.39.82C1509.65,1983.61,1487.85,1983.79,1466.05,1983.09Z"/><path class="cls-4" d="M1523.72,1997.94c30.78-.7,61.56-.52,92.34-.82,30.78.29,61.55.12,92.33.82-30.78.7-61.55.53-92.33.82C1585.28,1998.46,1554.5,1998.64,1523.72,1997.94Z"/><path class="cls-4" d="M1514.46,1989.15c32.32-.7,64.65-.52,97-.82,32.32.29,64.64.12,97,.82-32.32.71-64.64.54-97,.82C1579.11,1989.67,1546.78,1989.86,1514.46,1989.15Z"/><path class="cls-4" d="M1514.46,1972.45c32.32-1.06,64.65-.79,97-1.23,32.32.43,64.64.17,97,1.23-32.32,1.06-64.64.8-97,1.23C1579.11,1973.24,1546.78,1973.51,1514.46,1972.45Z"/><path class="cls-4" d="M1650,1955.14c9.74-.7,19.47-.52,29.21-.82,9.75.29,19.48.12,29.22.82-9.74.7-19.47.53-29.22.82C1669.43,1955.66,1659.7,1955.84,1650,1955.14Z"/><path class="cls-4" d="M1493,2003.1c34.17-.7,68.34-.52,102.52-.82,34.17.29,68.35.12,102.52.82-34.17.7-68.35.53-102.52.82C1561.35,2003.62,1527.18,2003.8,1493,2003.1Z"/><path class="cls-4" d="M1488,1977.19c13.69-1,27.39-1.09,41.09-1.24,13.69.15,27.39.22,41.09,1.24-13.7,1-27.4,1.09-41.09,1.24C1515.37,1978.28,1501.67,1978.21,1488,1977.19Z"/><path class="cls-21" d="M1271.39,1919a48.24,48.24,0,0,0-68.9-17.56,48.24,48.24,0,0,0,68.9,17.56Z"/><path class="cls-6" d="M1212.63,1987.47c9.38,24.73,33.67,39.06,57.13,35.17,23.43,3.94,47.81-10.44,57.19-35.17,10.59-27.88-1.8-58.49-27.65-68.3a47,47,0,0,0-29.54-1.26,46.85,46.85,0,0,0-29.48,1.26C1214.38,1929,1202,1959.59,1212.63,1987.47Z"/><path class="cls-11" d="M1212.63,1987.47c9.38,24.73,33.67,39.06,57.13,35.17,17.78,3,36.15-4.61,48.06-19.28a49,49,0,0,1-14.92,7.63c-12.78,3-31-5.45-41.93-10.3-13.94-6.71-31-2.43-37.65-19.43-5.45-13.41-4.44-30.38,4.25-42.69,5.47-7.74,9.38-8.62,16.09-15.18,2-2,10.17-5.05,8.86-7.09a46,46,0,0,0-12.24,2.87C1214.38,1929,1202,1959.59,1212.63,1987.47Z"/><path class="cls-22" d="M1258.78,1888.34c5.78,7.28,14.22,19.25,8.34,28.59-3.17,5,1.83,8,5,3,8.41-13.33,1.76-27.65-7.1-38.81-2.74-3.47-8.55,4.24-6.21,7.18Z"/><path class="cls-23" d="M1297.9,1955.11c5.23,10.89,14,17.53,19.59,14.84s5.89-13.69.66-24.57-14-17.52-19.59-14.84S1292.66,1944.23,1297.9,1955.11Z"/><path class="cls-14" d="M2552.22,2503.64c-282.59-46.57-317.7-92.19-312.69-227.62a215.32,215.32,0,0,1,3.82-33.37c15.16-77.45,70.24-122.38,104.83-144.3a266.32,266.32,0,0,1,40.39-20.83c42.23-17.57,183.77-89,212.13-266.31,33.45-209,45.62-502.24,418-503.34,57.05-.16,105.31,11.58,146.27,32.88,226.45,117.69,230.73,527.22,271.79,831.6C3485.25,2531.83,2834.8,2550.23,2552.22,2503.64Z"/><path class="cls-17" d="M3126.51,1832.55c3.11,26.54,17.2,51.8,14.79,78.42-4.16,46-53.75,73.62-72.9,115.69-18.79,41.29-5.68,89.18,4.69,133.33s16.13,95.65-13.08,130.36c-25.12,29.85-68.31,37-107.27,34.89s-77.93-11.4-116.59-6.2c-49.48,6.66-96.74,36.75-145.86,27.83-36.05-6.55-64.67-32.82-94.18-54.55s-66.84-40.39-101.63-28.9c-21.28,7-41.89,25-63.11,17.79-33.81-11.46-25.77-70.93-58.55-85.07-7.94-3.42-17-3.33-25.49-1.84-37.8,6.61-66.87,38.11-103.88,48.32a.17.17,0,0,1-.1,0c15.16-77.45,70.24-122.38,104.83-144.3a266.32,266.32,0,0,1,40.39-20.83c42.23-17.57,183.77-89,212.13-266.31,33.45-209,45.62-502.24,418-503.34,57.05-.16,105.31,11.58,146.27,32.88a48.28,48.28,0,0,1-3.35,6.38c-7.41,11.91-18.42,21.1-27.26,32a108.63,108.63,0,0,0-21.73,89.26c11.53,55.5,65.33,96.26,72,152.57C3193.33,1694.67,3117.85,1758.82,3126.51,1832.55Z"/><path class="cls-17" d="M3084.27,2059.09s81.92-82.89,214.21,65.26C3298.48,2124.35,3189.25,1929.16,3084.27,2059.09Z"/><path class="cls-17" d="M3108.14,2017.34s35.17-72.58,157.89-56.12C3266,1961.22,3125.35,1921.57,3108.14,2017.34Z"/><path class="cls-17" d="M2842.49,2333.06s-69.87,11.87-53.1,124.36C2789.39,2457.42,2746.76,2338,2842.49,2333.06Z"/><path class="cls-17" d="M2861.64,2333.06s46.93,4.39,61.14,100.37C2922.78,2433.43,2935.58,2325.8,2861.64,2333.06Z"/><path class="cls-17" d="M3084.27,2280.7s54-43.61,137.9,57.48C3222.17,2338.18,3157.5,2206,3084.27,2280.7Z"/><path class="cls-17" d="M2364.57,2225.81s-100.28,8.64-71.89,136.6C2292.68,2362.41,2241.34,2213.73,2364.57,2225.81Z"/><path class="cls-17" d="M3155.14,1837.31S3154.56,1730,3266,1714.73C3266,1714.73,3147.53,1684.3,3155.14,1837.31Z"/><ellipse class="cls-24" cx="2768.18" cy="1254.05" rx="73.39" ry="60.96" transform="translate(892.07 3644.79) rotate(-76.25)"/><path class="cls-12" d="M1737.21,2414c57.48,50.81,161.14,78.9,234.16,88.52q3,.38,6.09.65h0c74.87,6.16,215.69-43.54,215.69-43.54l-3.89-40.75-10.6-111.38-84.38-86.27L1969,2263.46l-39.86,58.36c-101.09-21.52-146.73,26.27-171.55,56.62C1742.24,2397.2,1737.21,2414,1737.21,2414Z"/><path class="cls-8" d="M1737.21,2414c57.48,50.81,161.14,78.9,234.16,88.52q3,.38,6.09.65h0c28.12-149.8-48.31-181.3-48.31-181.3-101.09-21.52-146.73,26.27-171.55,56.62C1742.24,2397.2,1737.21,2414,1737.21,2414Z"/><path class="cls-5" d="M1737.21,2414c57.48,50.81,161.14,78.9,234.16,88.52s221.78-42.9,221.78-42.9l-3.89-40.75s-138.07,74.41-250.33,43-141-48.2-181.33-83.42C1742.24,2397.2,1737.21,2414,1737.21,2414Z"/><path class="cls-12" d="M2269.2,2531c57.49,50.82,161.15,78.91,234.17,88.52q3,.39,6.08.65h0c74.87,6.16,215.68-43.53,215.68-43.53l-3.88-40.75-10.6-111.39-84.38-86.27L2501,2380.46l-39.86,58.36c-101.09-21.51-146.73,26.27-171.55,56.62C2274.24,2514.2,2269.2,2531,2269.2,2531Z"/><path class="cls-8" d="M2269.2,2531c57.49,50.82,161.15,78.91,234.17,88.52q3,.39,6.08.65h0c28.12-149.8-48.31-181.3-48.31-181.3-101.09-21.51-146.73,26.27-171.55,56.62C2274.24,2514.2,2269.2,2531,2269.2,2531Z"/><path class="cls-5" d="M2269.2,2531c57.49,50.82,161.15,78.91,234.17,88.52s221.77-42.89,221.77-42.89l-3.88-40.75s-138.07,74.4-250.33,43-141-48.2-181.33-83.42C2274.24,2514.2,2269.2,2531,2269.2,2531Z"/><path class="cls-12" d="M3054,1485.57l-63.83,286,0,34.53-.07,126-.11,176.1s-135.82-30.49-169-164.66c-2.85-11.53-6.41-23.72-10.56-36.38-8.92-27.27-20.52-56.69-33.35-86.24-50.42-116.23-119.74-234.76-119.74-234.76l87.45-120.76s47.1-22,101.72-19.84l108.56,4.35Z"/><path class="cls-25" d="M2957.73,1362.66l.11,0a139.24,139.24,0,0,0,21.51-6.71c2.84-1.06,5.78-2.5,8.81-3.93.08,0,.08-.08.16-.08,19-9.49,38.16-26.16,35.79-54.22-5.15-59.59-61.55-31.2-61.55-31.2l-66-140.3-6.42-13.69-13.39,1.66-118.39,14.9-7.94,77.66-3.83,37.23s-19.47,183.63,69.07,190.45c0,0,16.05,1.91,30-1.06l.83,12.24s-49.48,23-38.15,50.54,148.16,1.46,146.71-46.18c0,0-12.49-12.2-7.55-41.54s10.28-45.8,10.28-45.8Z"/><path class="cls-26" d="M2973.21,1295.12c-1.87-7.9,7.57-13.92,14-8.95,5.33,4.13,9.23,12.14,2.68,27.67-12.71,30.15-28,14.3-25.52,5s11.65-12.33,8.93-23.35C2973.26,1295.33,2973.23,1295.22,2973.21,1295.12Z"/><path class="cls-27" d="M2846.84,1241.72a10.48,10.48,0,0,1,6.13-4.2,13,13,0,0,1,8.67.81c5.28,2.27,11.06,8.88,9.88,14.84-.49,2.46,2.07,4.78,4.33,4.93,2.77.18,4.43-1.87,4.92-4.33,1-5.21-1.29-10.37-4.2-14.55a28,28,0,0,0-11.9-9.65c-8.85-3.78-20-1.14-25.47,6.9-3.39,4.93,4.26,10.17,7.64,5.25Z"/><path class="cls-27" d="M2762,1248.44c1.2-4.9,7.83-9.18,12.75-9.44,5.7-.3,10.67,5,13.41,10.15,1.18,2.21,4.4,2.7,6.4,1.43a4.73,4.73,0,0,0,1.43-6.4c-4.22-7.92-12.63-15.24-22.12-14.4-9,.79-18.68,7.5-20.9,16.52a4.64,4.64,0,0,0,9,2.14Z"/><ellipse class="cls-27" cx="2771.55" cy="1270.18" rx="13.17" ry="8.26" transform="matrix(0.14, -0.99, 0.99, 0.14, 1131.05, 3839.94)"/><ellipse class="cls-27" cx="2846.53" cy="1280.63" rx="13.89" ry="8.71" transform="translate(1185.34 3923.2) rotate(-82.07)"/><path class="cls-26" d="M2979.34,1355.94a138.52,138.52,0,0,1-21.52,6.66s-19.85-1-20.44-19.92C2938.47,1344.56,2950.32,1363.8,2979.34,1355.94Z"/><path d="M3057.35,1150.08a1.42,1.42,0,0,1,0-2.6c7-3,25.15-9.69,31.68-3.36C3096.93,1151.75,3081.06,1160.75,3057.35,1150.08Z"/><path d="M3052.56,1141.86a2,2,0,0,1-3-1.92c1.7-10.29,7.12-36.1,19.18-39C3083.29,1097.36,3082.14,1122.24,3052.56,1141.86Z"/><path class="cls-26" d="M2990,1182.7l-27.4,83.79s-80.63-85.32-146-62.52c-34.27,12-54.55,8.63-66.09,2.74l7.93-77.64,118.39-14.91,19.82,12Z"/><path class="cls-28" d="M3046.2,1266.36h-.07a313.71,313.71,0,0,1-22.43,27.91s-6.3-49.77-61.13-27.78c0,0-57.35-76.63-120.59-80.2-11.32-.62-22.53,2-33.07,6.24-16.16,6.42-58.61,16.8-82.94-20-31-47,3.86-85.54,6.5-88.24a.26.26,0,0,0,.09-.15s8.14-96.18,84.54-62.89c16.34,7.1,36.17,21.38,48.12,23.2,47.88,7,60.23-28.15,90.19,5.07,37.41,41.48,89.67,33.63,75.3,104.16C3030.71,1153.67,3111.77,1173.94,3046.2,1266.36Z"/><path d="M3046.13,1266.36a313.71,313.71,0,0,1-22.43,27.91s-6.3-49.77-61.13-27.78c0,0-57.35-76.63-120.59-80.2-11.32-.62-22.53,2-33.07,6.24-16.16,6.42-58.61,16.8-82.94-20-31-47,3.86-85.54,6.5-88.24-1.06,3.49-21.7,71.54,29.38,91.76,52.44,20.68,65.94-36.76,123.94,1.73s108.62,34.56,126,2.32C3011.77,1180.09,2991.33,1266.4,3046.13,1266.36Z"/><path d="M2995.56,1091.66s55.48,43.1-5.39,87.83C2990.17,1179.49,3030.49,1137.71,2995.56,1091.66Z"/><path class="cls-29" d="M2750.37,1113.37s-5.62,53.6,70.64,46.19C2821,1159.56,2771.27,1159.3,2750.37,1113.37Z"/><path d="M2759.23,1063.9s9.6-53.65,64.41-27.72C2823.64,1036.18,2774.78,1025.81,2759.23,1063.9Z"/><path d="M2833.88,1075.79s-11.31,25,23.94,39.3c0,0,24.69,74.94,106.38,47.49,0,0-74.61,13.72-97-53C2867.18,1109.57,2839.58,1106.77,2833.88,1075.79Z"/><path class="cls-30" d="M2788.54,1353.61l52.87-7.64a5.09,5.09,0,0,1,5.82,5.44c-1,11.93-5.87,36.78-28.29,38.5s-31.46-19.4-34.58-29.85A5.08,5.08,0,0,1,2788.54,1353.61Z"/><path class="cls-24" d="M2870.46,1046.46c.47,0,1.59-.17,3.27-.24-1.12.08-2.27.16-3.41.27Z"/><path class="cls-6" d="M2936.07,1351.34q-3.06,3-6.36,5.83l-1.55,1.28-.79.63c-.07.06-1.13.87-.35.28-1.12.85-2.25,1.68-3.4,2.49a105.49,105.49,0,0,1-14.69,8.64c-1.21.58-2.42,1.14-3.65,1.68l-.92.4c-.72.31,1-.39-.22.09-.75.3-1.49.61-2.24.89-2.62,1-5.29,1.93-8,2.73s-5.42,1.5-8.17,2.09c-1.31.28-2.62.53-3.94.76l-2,.33-1.19.18c-1.33.19.93-.11-.4,0a104.73,104.73,0,0,1-19.23.63,4.53,4.53,0,0,0-4.5,4.5,4.61,4.61,0,0,0,4.5,4.5,109.74,109.74,0,0,0,83.42-31.61,4.5,4.5,0,0,0-6.36-6.37Z"/><path class="cls-28" d="M2863.21,1385c-.21,0,.79-13.7-20.5-7.79s-4.33,20.69,6.51,19.51,15-5.14,14-10.47Z"/><path class="cls-8" d="M3018.7,1245.13l-22.49-9.84-17.5-7.65c3.86-177-85.92-182.29-105-181.42-1.12.08-2.27.16-3.41.27l.14,0,35.37-5.78S3049.83,1028.62,3018.7,1245.13Z"/><path class="cls-24" d="M2996.21,1235.29a.56.56,0,0,0,0,.12l-17.48-7.77c3.86-177-85.92-182.29-105-181.42C3020.84,1035.92,2996.91,1229.86,2996.21,1235.29Z"/><ellipse class="cls-5" cx="2972.57" cy="1300.11" rx="73.39" ry="60.96" transform="translate(877.94 3777.81) rotate(-73.41)"/><path class="cls-24" d="M3026.19,1316.07c-8.83,29.63-35.32,48.09-60.06,42.46-.86-.18-1.73-.41-2.59-.67-25.47-7.58-38.71-38.58-29.59-69.25s37.19-49.37,62.66-41.79c.85.25,1.7.53,2.52.86C3022.94,1256.49,3035,1286.44,3026.19,1316.07Z"/><path class="cls-8" d="M3026.19,1316.07c-8.83,29.63-35.32,48.09-60.06,42.46-23.81-8.81-35.89-38.75-27.05-68.39s35.3-48.09,60.05-42.46C3022.94,1256.49,3035,1286.44,3026.19,1316.07Z"/><path class="cls-13" d="M2990.15,1806.1l-.07,126c-49.54,6.55-130.37-11.73-179.63-24.94-25.4-6.82-42.42-12.27-42.42-12.27l2.26-73.14,6.81-.83,98-12Z"/><path class="cls-13" d="M2961,1599.34s-41.15,124.12-61.91,126.55-171.06-22.43-171.06-22.43l-18.22,64.25,131.54,27.68,127.91,6.87L3021.43,1690Z"/><path class="cls-25" d="M2935,1696.71l-20.58,51.47-175.9-19.3-10.42,121.51s240.69,102.42,284,32.34c45.22-73.16,63.82-124,63.82-124l-14.65-88.79-62.75-32.34Z"/><path class="cls-12" d="M3051.59,1485.58s-66-3.11-84.2,84.41S2935,1696.71,2935,1696.71s77.1-11.85,140.92,62C3075.89,1758.7,3149.46,1533.35,3051.59,1485.58Z"/><path class="cls-5" d="M2834.69,1940.35l-80.23-223.72a20.15,20.15,0,0,0-16.19-18.12l-476.25-94a20,20,0,0,0-14.52,2.63h0a20,20,0,0,0-3.11,2.38l-15.45,11.78,6.26,47.77,7.39,3.24,79.52,159.4a20.2,20.2,0,0,0,15.41,17.64l454.71,108.14-.49,2.07,17.25,12.07,16.87-12.83a21.5,21.5,0,0,0,1.81-1.37l0,0h0A20,20,0,0,0,2834.69,1940.35Z"/><path class="cls-24" d="M2794,1973.9l-472.4-112.35a20.17,20.17,0,0,1-15.41-17.64l-84.08-205.42a20.17,20.17,0,0,1,24-21.78l476.25,94a20.18,20.18,0,0,1,16.2,18.12l80.23,223.72A20.17,20.17,0,0,1,2794,1973.9Z"/><path class="cls-24" d="M2749.46,1697.34l-29.88-359a20.18,20.18,0,0,0-16.2-18.12l-476.25-94a19.93,19.93,0,0,0-14.51,2.63h0a20.67,20.67,0,0,0-3.12,2.37L2194.05,1243l6.26,47.77,7.39,3.23,29.18,294.67a20.17,20.17,0,0,0,15.41,17.63L2707,1714.43l-.49,2.07,17.24,12.07,16.87-12.82a17.29,17.29,0,0,0,1.81-1.38h0A20.07,20.07,0,0,0,2749.46,1697.34Z"/><path class="cls-5" d="M2708.71,1730.89l-472.4-112.35a20.17,20.17,0,0,1-15.41-17.63l-33.73-340.69a20.17,20.17,0,0,1,24-21.77l476.26,94a20.14,20.14,0,0,1,16.19,18.11l29.89,359A20.18,20.18,0,0,1,2708.71,1730.89Z"/><path class="cls-6" d="M2744.81,2117.83s-76.95,117-240.81,103.67-212.63-278.21-212.63-278.21l-88.32,395.25c-148.8,56.84-260.15-83-260.15-83s92.47-393.26,208.77-570.85c23.18-35.42,47.32-62.25,71.86-75.69,45.77-25.06,100.39-9.13,154.28,25,44.11,27.91,87.72,68,125.59,107.72,65.13,68.37,113.27,135.79,117.64,138.71Z"/><path class="cls-11" d="M2744.81,2117.83s-76.95,117-240.81,103.67-212.63-278.21-212.63-278.21l10-50.25s72.78,222.77,127.22,205.14,16.86-323,74.76-356.46h0c65.13,68.37,113.27,135.79,117.64,138.71Z"/><path class="cls-6" d="M2990,2108.22c-5.55,108.75-60.86,153.59-60.86,153.59-112.92,77.48-195.56-21-195.56-21l-.29,5.14v.07l-10.06,179.65c-163.83,69.73-262.89-28.78-262.89-28.78s16-314.36,40.39-531.32c0,0,3.55-65,28.08-119.42,18.23-40.42,48-75,96.51-72.68,39.07,1.84,70,17,93.85,36.24,3.17,2.54,6.21,5.16,9.12,7.83,36.38,72,76.42,159.87,92.75,226.06C2854.13,2077.73,2990,2108.22,2990,2108.22Z"/><path class="cls-11" d="M2990,2108.22c-5.55,108.75-60.86,153.59-60.86,153.59-112.92,77.48-195.56-21-195.56-21l-.29,5.14,5.55-239.18S2833.8,2356.25,2990,2108.22Z"/><path class="cls-31" d="M2377.81,1634c-19,24.76-52.66,47-94.15,59.29-52.36,15.54-102.92,11.06-132-8.57,23.18-35.42,47.32-62.25,71.86-75.69C2269.3,1584,2323.92,1599.89,2377.81,1634Z"/><path class="cls-31" d="M2719.14,1709.67c0,22.47-7.36,46.17-22.4,67-33.92,46.87-94.07,61.22-134.34,32.07-20.26-14.66-31.61-37.52-33.62-62.59,18.23-40.42,48-75,96.51-72.68C2664.36,1675.27,2695.33,1690.48,2719.14,1709.67Z"/><path class="cls-11" d="M894,1058.65q-38.15,17.26-74.86,37.45t-71.74,43.08a1074.31,1074.31,0,0,0-132.41,102l.14-.14a197.48,197.48,0,0,0-17.8,23.15c-1.37,2-2.55,4.12-3.8,6.2-.61,1-1.16,2.12-1.74,3.18l-.86,1.6c-.27.54-.52,1.08-.78,1.63a77.22,77.22,0,0,0-5.2,13.4,55,55,0,0,0-2.2,14,41.76,41.76,0,0,0,2,13.84,43.91,43.91,0,0,0,6.48,12.41,60.53,60.53,0,0,0,9.78,10.28,86.37,86.37,0,0,0,11.76,8.24,122.24,122.24,0,0,0,12.86,6.67c2.19,1,4.45,1.93,6.68,2.88s4.52,1.79,6.82,2.58c4.56,1.68,9.22,3.12,13.88,4.53a423.62,423.62,0,0,0,57.36,12c38.78,5.61,78,7.89,117.28,8.92s78.55.49,117.82-.81,78.52-3.5,117.73-6.2,78.38-6,117.51-9.8,78.25-8.08,117.22-12.62l29.26-3.93,14.63-2,14.68-1.68,29.38-3.37,29.43-2.82,14.72-1.38,14.73-1.14,29.48-2.24,29.51-1.75c4.92-.28,9.84-.63,14.76-.84l14.77-.63c9.84-.4,19.69-.89,29.54-1.21l29.55-.78c4.92-.11,9.85-.32,14.77-.34l14.78-.16,14.78-.15c4.93,0,9.85-.15,14.78-.1,19.7.12,39.41.05,59.11.54l14.77.27c4.93.09,9.86.17,14.78.36l29.54,1c39.37,1.52,78.73,3.47,118,6.36,78.62,5.47,157,13.6,235.18,23.13,39.08,4.91,78.13,10,117.1,15.6l14.62,2.07,14.61,2.14,29.21,4.3,29.19,4.45,14.6,2.22,14.58,2.29c77.78,12.19,155.39,25.33,233,38.61s155.09,26.71,232.69,39.6c155.18,25.8,310.74,49.52,467.21,65l29.35,2.74,14.68,1.37,14.68,1.24,29.37,2.44,29.4,2.12,14.7,1.05,14.71.88L3466,1554l29.44,1.4c4.9.21,9.81.49,14.72.66l14.72.5c39.27,1.54,78.57,2,117.85,2l29.47-.27,7.37-.07,7.36-.18,14.73-.37,14.73-.36,7.36-.18,7.36-.3,29.45-1.21c39.23-2,78.46-4.46,117.55-8.37l14.67-1.39,3.67-.34,3.66-.41,7.32-.83,29.28-3.32c9.76-1.17,19.48-2.55,29.22-3.82l14.61-1.94c4.87-.64,9.71-1.46,14.57-2.18l29.13-4.46c9.69-1.58,19.35-3.32,29-5l14.51-2.51,1.81-.32,1.77-.39,3.52-.81c2.36-.61,4.72-1.17,7-1.86a214.06,214.06,0,0,0,27.48-9.74c4.44-2,8.85-4,13.12-6.33,2.17-1.1,4.25-2.34,6.37-3.53l3.11-1.89c1-.62,2.07-1.26,3.07-1.94a129.42,129.42,0,0,0,11.71-8.55,102.37,102.37,0,0,0,10.47-9.92,73.08,73.08,0,0,0,8.53-11.49,50.76,50.76,0,0,0,5.59-13,46,46,0,0,0,1.64-14,55.3,55.3,0,0,0-2.62-13.92l.11.25a77.43,77.43,0,0,0-12.81-17.33,147.83,147.83,0,0,0-16.36-14.52,292.48,292.48,0,0,0-37-23.8c-25.81-14.21-52.92-26-80.34-36.91s-55.33-20.63-83.39-29.84-56.34-17.77-84.72-26c28.48,7.87,56.85,16.11,85,25s56.2,18.35,83.81,28.94,54.88,22.21,81,36.25a292.88,292.88,0,0,1,37.67,23.7,147.23,147.23,0,0,1,16.89,14.71,80.82,80.82,0,0,1,13.57,18.08l.07.13,0,.13a59.39,59.39,0,0,1,2.94,15,50.24,50.24,0,0,1-1.66,15.2,54.69,54.69,0,0,1-5.89,14.06,77,77,0,0,1-8.93,12.23,106.8,106.8,0,0,1-10.83,10.45,135.89,135.89,0,0,1-12,8.94c-1,.71-2.08,1.37-3.15,2s-2.11,1.33-3.18,2c-2.16,1.24-4.29,2.53-6.5,3.68-4.37,2.4-8.87,4.53-13.4,6.59a217.62,217.62,0,0,1-28,10.2c-2.38.72-4.79,1.31-7.2,2l-3.66.87-1.83.42-1.81.33-14.55,2.64c-9.7,1.75-19.39,3.57-29.1,5.24l-29.17,4.67c-4.87.76-9.72,1.61-14.6,2.28l-14.63,2c-9.76,1.34-19.5,2.78-29.27,4l-29.34,3.51-7.34.88-3.66.44-3.68.37-14.7,1.48c-39.18,4.17-78.49,6.9-117.83,9.16l-29.51,1.39-7.38.35-7.39.23-14.76.45-14.77.45-7.39.21-7.38.1-29.55.41c-39.39.2-78.8,0-118.17-1.41l-14.77-.43c-4.92-.15-9.84-.41-14.76-.6l-29.52-1.26L3436,1561l-14.75-.82-14.74-1-29.47-2-29.45-2.31-14.73-1.17-14.71-1.31-29.42-2.67q-117.6-11.38-234.59-28c-78-10.87-155.78-23-233.45-35.85-155.32-25.64-310.21-53.5-465.62-77.8l-14.57-2.3-14.57-2.23-29.15-4.47-29.17-4.32-14.59-2.16-14.59-2.07c-38.91-5.65-77.89-10.75-116.89-15.68-78-9.58-156.22-17.77-234.6-23.29l-14.7-1-7.35-.53-7.35-.45-29.41-1.78-7.36-.44-7.35-.36-14.72-.71-14.71-.7-7.36-.35-7.36-.26-29.44-1c-4.91-.2-9.82-.29-14.73-.39l-14.73-.32c-19.63-.54-39.27-.53-58.91-.69-4.91-.07-9.82,0-14.73,0l-14.72.12-14.73.11c-4.91,0-9.82.2-14.73.3l-29.45.69c-9.81.3-19.62.76-29.43,1.13l-14.71.58c-4.91.2-9.81.54-14.71.8l-29.4,1.67-29.38,2.15-14.68,1.09-14.67,1.33-29.33,2.69-29.27,3.21-14.64,1.62L1328.3,1362l-29.25,3.8c-39.22,4.38-78.31,8.52-117.55,12.11-78.42,7.17-157,12.66-235.8,14.8-39.38,1.06-78.8,1.27-118.21.06-19.7-.62-39.4-1.61-59.07-3.14s-39.31-3.62-58.84-6.59a429.33,429.33,0,0,1-58-12.62c-4.74-1.47-9.47-3-14.13-4.74-2.34-.83-4.64-1.79-7-2.7s-4.6-1.92-6.84-3a130.41,130.41,0,0,1-13.27-7,91.39,91.39,0,0,1-12.29-8.78A64.3,64.3,0,0,1,587.7,1333a48.31,48.31,0,0,1-7-13.69,46.14,46.14,0,0,1-2.12-15.24,58.91,58.91,0,0,1,2.47-15,81.89,81.89,0,0,1,5.57-14c.28-.56.54-1.13.83-1.69l.9-1.64c.61-1.1,1.18-2.21,1.82-3.28,1.31-2.13,2.55-4.3,4-6.35a201.4,201.4,0,0,1,18.33-23.44l.08-.08.07-.06a1073.61,1073.61,0,0,1,133.73-101q35.29-22.59,72.31-42.32T894,1058.65Z"/></g></svg>